<?xml version="1.0" encoding="utf-8"?>
<!-- Generator: Adobe Illustrator 27.0.1, SVG Export Plug-In . SVG Version: 6.00 Build 0)  -->
<svg version="1.1" xmlns="http://www.w3.org/2000/svg" xmlns:xlink="http://www.w3.org/1999/xlink" x="0px" y="0px"
	 viewBox="0 0 600 182.76" style="enable-background:new 0 0 600 182.76;" xml:space="preserve">
<style type="text/css">
	.st0{fill:#333333;}
	.st1{fill:#DB1A5D;}
	.st2{fill:#1A1A1A;}
</style>
<g id="Layer_1">
	<g>
		<path class="st0" d="M39.19,145.64c0.06-0.45,0.11-0.82,0.17-1.1c0.06-0.29,0.12-0.59,0.17-0.91c0-0.32-0.01-0.62-0.04-0.91
			c-0.03-0.29-0.04-0.59-0.04-0.91c0.06-0.58,0.07-1.13,0.04-1.68c-0.03-0.54,0.1-1.07,0.39-1.58v-0.19l0.52-7.01l-0.09-0.1
			c0-0.06-0.03-0.1-0.09-0.1c-0.06,0-0.07-0.27-0.04-0.82c0.03-0.54,0.01-0.78-0.04-0.72c-0.23,0.19-0.4,0.21-0.52,0.05
			c-0.12-0.16-0.23-0.14-0.35,0.05c-0.46,0.77-0.92,1.55-1.39,2.35c-0.46,0.8-0.92,1.55-1.39,2.26c-0.06,0.13-0.12,0.22-0.17,0.29
			c-0.06,0.06-0.09,0.16-0.09,0.29c-0.35,0.9-0.77,1.81-1.26,2.74c-0.49,0.93-0.97,1.84-1.43,2.74l-1.3,2.69
			c-0.06,0.13-0.13,0.26-0.22,0.38c-0.09,0.13-0.19,0.26-0.3,0.38c0,0.13-0.03,0.19-0.09,0.19c-0.06,0-0.09,0.06-0.09,0.19
			c-0.06,0.32-0.17,0.64-0.35,0.96c-0.17,0.32-0.32,0.64-0.43,0.96c-0.12,0.26-0.26,0.51-0.43,0.77c-0.17,0.26-0.35,0.54-0.52,0.86
			c-0.12,0.26-0.25,0.5-0.39,0.72c-0.14,0.23-0.25,0.47-0.3,0.72c-0.06,0.26-0.23,0.58-0.52,0.96c-0.12,0.13-0.22,0.3-0.3,0.53
			c-0.09,0.23-0.19,0.47-0.3,0.72l-0.26,0.86c-0.35,0.9-0.75,1.7-1.21,2.4c-0.29,0.58-0.61,1.14-0.95,1.68
			c-0.35,0.54-0.61,1.17-0.78,1.87c-0.12,0.19-0.2,0.37-0.26,0.53c-0.06,0.16-0.14,0.3-0.26,0.43c-0.17,0.26-0.33,0.47-0.48,0.62
			c-0.14,0.16-0.27,0.37-0.39,0.62l-0.95,1.82c-0.12,0.32-0.25,0.64-0.39,0.96c-0.14,0.32-0.3,0.64-0.48,0.96l-1.04,1.63l-0.52,0.77
			c-0.35,0.58-0.81,1.18-1.39,1.82c-0.81,0.9-1.73,1.47-2.77,1.73c-0.12,0.06-0.29,0.1-0.52,0.1c-1.16-0.13-2.08-0.4-2.77-0.82
			c-0.69-0.42-1.24-1.26-1.65-2.54c-0.06-0.45-0.12-0.91-0.17-1.39c-0.06-0.48-0.09-0.94-0.09-1.39c0.06-0.58,0.1-1.12,0.13-1.63
			c0.03-0.51,0.04-1.02,0.04-1.54c0.12-0.7,0.25-1.41,0.39-2.11c0.14-0.7,0.22-1.41,0.22-2.11c0.11-0.45,0.2-0.91,0.26-1.39
			c0.06-0.48,0.12-0.91,0.17-1.3l0.69-2.69c0.12-0.38,0.2-0.8,0.26-1.25c0.06-0.45,0.17-0.9,0.35-1.34
			c0.11-0.25,0.17-0.51,0.17-0.77c0-0.25,0.06-0.54,0.17-0.86c0.17-0.7,0.33-1.41,0.48-2.11c0.14-0.7,0.27-1.41,0.39-2.11
			c0.17-0.58,0.33-1.18,0.48-1.82c0.14-0.64,0.27-1.25,0.39-1.82c0-0.13,0.01-0.22,0.04-0.29c0.03-0.06,0.04-0.16,0.04-0.29
			c0.11-0.32,0.24-0.66,0.39-1.01c0.14-0.35,0.25-0.69,0.3-1.01c0-0.32,0.06-0.61,0.17-0.86c0.11-0.25,0.2-0.58,0.26-0.96l0.26-0.58
			c0.12-0.13,0.17-0.25,0.17-0.38c0-0.32,0.03-0.69,0.09-1.1c0.06-0.42,0.14-0.78,0.26-1.1c0.11-0.58,0.24-1.17,0.39-1.78
			c0.14-0.61,0.36-1.23,0.65-1.87c0.06-0.38,0.1-0.77,0.13-1.15c0.03-0.38,0.1-0.8,0.22-1.25c0.12-0.45,0.23-0.86,0.35-1.25
			c0.11-0.38,0.23-0.8,0.35-1.25c0.17-0.7,0.36-1.34,0.56-1.92c0.2-0.58,0.36-1.21,0.48-1.92c0.06-0.51,0.14-1.04,0.26-1.58
			c0.12-0.54,0.23-1.07,0.35-1.58c0.17-0.64,0.33-1.21,0.48-1.73c0.14-0.51,0.22-1.09,0.22-1.73c0-0.06,0.01-0.16,0.04-0.29
			c0.03-0.13,0.04-0.25,0.04-0.38c0.12-0.64,0.23-1.26,0.35-1.87c0.12-0.61,0.23-1.2,0.35-1.78c0-0.45,0.29-0.73,0.87-0.86
			c0.58-0.13,1.18,0,1.82,0.38l0.69,0.58c0.12,0.06,0.17,0.26,0.17,0.58c-0.06,0.32-0.12,0.62-0.17,0.91
			c-0.06,0.29-0.15,0.56-0.26,0.82c-0.06,0.26-0.09,0.53-0.09,0.82c0,0.29-0.06,0.59-0.17,0.91c-0.06,0.45-0.13,0.88-0.22,1.3
			c-0.09,0.42-0.16,0.88-0.22,1.39c-0.23,0.77-0.45,1.54-0.65,2.3c-0.2,0.77-0.39,1.54-0.56,2.3l-0.87,3.55
			c-0.23,0.71-0.39,1.42-0.48,2.16c-0.09,0.74-0.25,1.43-0.48,2.06l-1.73,6.05c-0.4,1.47-0.79,2.96-1.17,4.46
			c-0.38,1.5-0.82,2.99-1.34,4.46c0,0.32-0.01,0.59-0.04,0.82c-0.03,0.22-0.07,0.46-0.13,0.72c-0.23,0.77-0.4,1.49-0.52,2.16
			c-0.12,0.67-0.32,1.42-0.61,2.26c-0.06,0.06-0.09,0.16-0.09,0.29c0,0.58-0.06,1.17-0.17,1.78c-0.12,0.61-0.23,1.23-0.35,1.87
			c0,0.19-0.04,0.45-0.13,0.77c-0.09,0.32-0.19,0.61-0.3,0.86l-0.26,1.63l-0.17,1.44c-0.06,0.51-0.1,0.96-0.13,1.34
			c-0.03,0.38-0.13,0.83-0.3,1.34c-0.06,0.06-0.09,0.13-0.09,0.19c0,0.06-0.03,0.16-0.09,0.29c0,0.83-0.02,1.63-0.04,2.4
			c-0.03,0.77-0.07,1.54-0.13,2.3c-0.06,0.51-0.06,0.98,0,1.39c0.06,0.42,0.14,0.78,0.26,1.1c0.12,0.26,0.26,0.32,0.43,0.19
			c0.58-0.32,0.98-0.64,1.21-0.96c0.58-0.7,1.07-1.34,1.47-1.92c0.4-0.58,0.78-1.21,1.13-1.92c0.17-0.32,0.37-0.62,0.61-0.91
			c0.23-0.29,0.43-0.59,0.61-0.91c0.29-0.45,0.53-0.91,0.74-1.39c0.2-0.48,0.42-0.94,0.65-1.39c0.23-0.51,0.46-0.96,0.69-1.34
			c0.23-0.38,0.49-0.8,0.78-1.25l0.26-0.67l0.43-0.96c0.46-0.9,0.89-1.78,1.3-2.64c0.4-0.86,0.84-1.74,1.3-2.64l1.04-2.11
			c0.17-0.32,0.36-0.64,0.56-0.96c0.2-0.32,0.36-0.67,0.48-1.06c0.17-0.32,0.35-0.67,0.52-1.06c0-0.06,0.06-0.22,0.17-0.48
			c0.29-0.58,0.61-1.21,0.95-1.92c0.35-0.7,0.69-1.38,1.04-2.02c0.17-0.32,0.32-0.62,0.43-0.91c0.12-0.29,0.26-0.59,0.43-0.91
			c0.23-0.19,0.35-0.38,0.35-0.58c0.12-0.64,0.49-1.34,1.13-2.11c0.92-2.18,2.02-4.29,3.29-6.34c0.29-0.51,0.61-0.99,0.95-1.44
			c0.35-0.45,0.66-0.93,0.95-1.44c0.12-0.13,0.22-0.25,0.3-0.38c0.09-0.13,0.22-0.25,0.39-0.38c0.35-0.25,0.69-0.45,1.04-0.58
			c0.35-0.06,0.66,0.02,0.95,0.24c0.29,0.22,0.56,0.53,0.82,0.91s0.52,0.78,0.78,1.2c0.26,0.42,0.53,0.72,0.82,0.91
			c0.23,0.51,0.35,0.99,0.35,1.44c0,0.13,0.01,0.3,0.04,0.53c0.03,0.22,0.04,0.4,0.04,0.53c-0.12,0.45-0.16,0.9-0.13,1.34
			c0.03,0.45,0.04,0.86,0.04,1.25c0,0.38-0.06,0.78-0.17,1.2c-0.12,0.42-0.17,0.85-0.17,1.3c0,0.77-0.03,1.54-0.09,2.3
			c-0.06,0.77-0.14,1.54-0.26,2.3c0,0.26-0.01,0.51-0.04,0.77c-0.03,0.26-0.1,0.51-0.22,0.77c-0.06,0.32-0.09,0.59-0.09,0.82
			c0,0.23,0,0.43,0,0.62c0.11,0.32,0.16,0.59,0.13,0.82c-0.03,0.22-0.07,0.46-0.13,0.72c-0.12,0.13-0.17,0.27-0.17,0.43
			c0,0.16-0.03,0.37-0.09,0.62l-0.17,4.03c-0.06,0.83-0.06,1.65,0,2.45c0.06,0.8,0.06,1.62,0,2.45c0.11,0.45,0.16,0.95,0.13,1.49
			c-0.03,0.54-0.02,1.04,0.04,1.49l0.35,3.07c0.12,0.9,0.27,1.79,0.48,2.69c0.2,0.9,0.45,1.7,0.74,2.4
			c0.17,1.47,0.63,2.62,1.39,3.46c0.12,0.13,0.17,0.29,0.17,0.48c0.17,0.51,0.43,0.96,0.78,1.34c0.35,0.38,0.66,0.77,0.95,1.15
			c0.29,0.26,0.59,0.37,0.91,0.34c0.32-0.03,0.62-0.11,0.91-0.24c0.58-0.19,1.08-0.42,1.52-0.67c0.43-0.25,0.82-0.64,1.17-1.15
			c0.81-0.9,1.44-1.82,1.91-2.78c0.29-0.38,0.59-0.8,0.91-1.25c0.32-0.45,0.56-0.93,0.74-1.44c0.4-0.7,0.74-1.39,1-2.06
			s0.5-1.36,0.74-2.06c0.11-0.51,0.32-0.98,0.61-1.39c0.29-0.42,0.46-0.91,0.52-1.49c0.29-0.58,0.53-1.2,0.74-1.87
			c0.2-0.67,0.45-1.33,0.74-1.97c0-0.13,0.03-0.25,0.09-0.38c0.63-1.54,1.18-3.23,1.65-5.09c0.23-0.64,0.49-1.15,0.78-1.54
			c0.35-0.38,0.46-0.83,0.35-1.34c-0.06-0.13-0.03-0.35,0.09-0.67c0.12-0.25,0.22-0.5,0.3-0.72c0.09-0.22,0.16-0.5,0.22-0.82
			c0-0.06,0.03-0.13,0.09-0.19c0.12-0.32,0.2-0.64,0.26-0.96c0.06-0.32,0.14-0.64,0.26-0.96c0.17-0.32,0.27-0.62,0.3-0.91
			c0.03-0.29,0.13-0.53,0.3-0.72c0.06-0.06,0.09-0.19,0.09-0.38c0-0.25,0.04-0.51,0.13-0.77c0.09-0.25,0.16-0.51,0.22-0.77
			c0.17-0.32,0.32-0.67,0.43-1.06c0.12-0.38,0.23-0.77,0.35-1.15c0.17-0.19,0.26-0.42,0.26-0.67c0.06-0.51,0.13-0.97,0.22-1.39
			c0.09-0.42,0.27-0.88,0.56-1.39c0.11-0.38,0.17-0.64,0.17-0.77c0.11-0.32,0.22-0.61,0.3-0.86c0.09-0.25,0.22-0.48,0.39-0.67
			c0.11-0.25,0.17-0.45,0.17-0.58c0-0.38,0.01-0.7,0.04-0.96c0.03-0.25,0.07-0.51,0.13-0.77c0.12-0.38,0.23-0.82,0.35-1.3
			c0.12-0.48,0.29-0.94,0.52-1.39c0.12-0.38,0.2-0.78,0.26-1.2c0.06-0.42,0.14-0.85,0.26-1.3c0.17-0.38,0.32-0.75,0.43-1.1
			c0.11-0.35,0.17-0.75,0.17-1.2c0.11-0.32,0.22-0.61,0.3-0.86c0.09-0.25,0.27-0.54,0.56-0.86c0.29-0.25,0.32-0.48,0.09-0.67
			c0-0.06-0.02-0.13-0.04-0.19c-0.03-0.06-0.04-0.13-0.04-0.19c0.35-0.58,0.58-1.17,0.69-1.78c0.11-0.61,0.29-1.17,0.52-1.68
			c0.12-0.32,0.2-0.61,0.26-0.86c0.06-0.25,0.17-0.48,0.35-0.67c0.12-0.06,0.12-0.25,0-0.58c0.06-0.13,0.1-0.29,0.13-0.48
			c0.03-0.19,0.1-0.42,0.22-0.67c0.35-0.64,0.55-1.44,0.61-2.4c0.17-0.13,0.32-0.16,0.43-0.1c0.12-0.13,0.17-0.22,0.17-0.29
			c0-0.25,0.03-0.45,0.09-0.58c0.06-0.13,0.11-0.24,0.17-0.34c0.06-0.1,0.09-0.21,0.09-0.34c0-0.19,0-0.35,0-0.48
			s0.09-0.25,0.26-0.38c0.12,0,0.17-0.1,0.17-0.29c-0.06-0.32-0.03-0.58,0.09-0.77c0.12-0.19,0.23-0.42,0.35-0.67
			c0.11-0.38,0.23-0.78,0.35-1.2c0.12-0.42,0.32-0.78,0.61-1.1c0-0.26,0.06-0.45,0.17-0.58c0.23-0.19,0.46-0.35,0.69-0.48
			c0.23-0.13,0.49-0.25,0.78-0.38c0.06,0.06,0.11,0.1,0.17,0.1h0.26c0.11,0.06,0.23,0.1,0.35,0.1c0.06,0.13,0.14,0.19,0.26,0.19
			c0.11,0,0.17,0.06,0.17,0.19c0,0.13,0.06,0.21,0.17,0.24c0.12,0.03,0.17,0.11,0.17,0.24c0.17,0.13,0.22,0.34,0.13,0.62
			c-0.09,0.29-0.19,0.53-0.3,0.72c-0.12,0.32-0.35,0.64-0.69,0.96c-0.35,0.32-0.58,0.64-0.69,0.96c-0.12,0.19-0.2,0.42-0.26,0.67
			c-0.06,0.26-0.15,0.45-0.26,0.58c-0.06,0.32-0.13,0.62-0.22,0.91c-0.09,0.29-0.19,0.59-0.3,0.91c0,0.13-0.02,0.23-0.04,0.29
			c-0.03,0.06-0.07,0.16-0.13,0.29c-0.12,0.51-0.27,0.95-0.48,1.3c-0.2,0.35-0.33,0.69-0.39,1.01c-0.12,0.32-0.23,0.66-0.35,1.01
			c-0.12,0.35-0.23,0.69-0.35,1.01c-0.17,0.32-0.26,0.67-0.26,1.06c-0.29,1.79-0.75,3.36-1.39,4.7c-0.29,0.51-0.48,0.93-0.56,1.25
			c-0.09,0.32-0.16,0.64-0.22,0.96v1.06l-0.26,0.48l-0.61,2.69c-0.23,0.71-0.49,1.31-0.78,1.82c-0.23,0.26-0.29,0.48-0.17,0.67
			c0.06,0.13,0.04,0.24-0.04,0.34c-0.09,0.1-0.13,0.21-0.13,0.34c-0.17,0.64-0.32,1.26-0.43,1.87c-0.12,0.61-0.26,1.23-0.43,1.87
			c-0.06,0.26-0.16,0.51-0.3,0.77c-0.15,0.26-0.25,0.54-0.3,0.86c0,0.13-0.03,0.23-0.09,0.29c-0.17,0.96-0.39,1.89-0.65,2.78
			c-0.26,0.9-0.53,1.82-0.82,2.78c-0.17,0.32-0.27,0.61-0.3,0.86c-0.03,0.26-0.1,0.54-0.22,0.86c-0.23,0.38-0.35,0.74-0.35,1.06
			c-0.17,0.9-0.38,1.67-0.61,2.3c-0.23,0.51-0.45,0.99-0.65,1.44c-0.2,0.45-0.36,0.99-0.48,1.63c-0.17,0.83-0.38,1.63-0.61,2.4
			c-0.23,0.77-0.49,1.54-0.78,2.3c-0.12,0.38-0.25,0.78-0.39,1.2c-0.15,0.42-0.27,0.88-0.39,1.39c0,0.13-0.03,0.26-0.09,0.38
			c-0.06,0.13-0.12,0.26-0.17,0.38c-0.29,0.83-0.61,1.58-0.95,2.26c-0.35,0.67-0.64,1.46-0.87,2.35v0.19
			c-0.46,0.51-0.78,1.09-0.95,1.73c-0.17,0.64-0.4,1.28-0.69,1.92c-0.64,1.67-1.39,3.11-2.25,4.32c-0.12,0.38-0.23,0.67-0.35,0.86
			l-0.78,1.06c-0.29,0.58-0.66,1.09-1.13,1.54c-0.46,0.45-0.87,0.86-1.21,1.25c-0.64,0.51-1.14,0.9-1.52,1.15
			c-0.38,0.25-0.82,0.38-1.34,0.38c-0.12,0-0.2,0.05-0.26,0.14c-0.06,0.1-0.15,0.14-0.26,0.14c-0.81,0.19-1.53,0.21-2.17,0.05
			c-0.64-0.16-1.27-0.4-1.91-0.72c-0.92-0.64-1.76-1.41-2.51-2.3c-0.46-0.51-0.85-1.12-1.17-1.82c-0.32-0.7-0.62-1.41-0.91-2.11
			c-0.58-1.28-1.01-2.59-1.3-3.94c-0.29-1.34-0.55-2.69-0.78-4.03c-0.06-0.83-0.1-1.62-0.13-2.35c-0.03-0.74-0.1-1.55-0.22-2.45
			c0-0.13-0.01-0.29-0.04-0.48c-0.03-0.19-0.04-0.42-0.04-0.67s-0.02-0.46-0.04-0.62c-0.03-0.16-0.04-0.3-0.04-0.43
			c0.11-0.64,0.17-1.26,0.17-1.87c0-0.61,0.03-1.2,0.09-1.78L39.19,145.64z"/>
		<path class="st0" d="M80.77,156.29c-0.64-0.13-1.29-0.24-1.95-0.34c-0.66-0.1-1.23-0.37-1.69-0.82c-0.63-0.7-1.23-1.47-1.78-2.3
			c-0.55-0.83-0.76-1.76-0.65-2.78c0-0.13,0.01-0.4,0.04-0.82c0.03-0.42,0.1-0.69,0.22-0.82l0.17-0.58
			c0.29-0.77,0.49-1.28,0.61-1.54c0.12-0.26,0.38-0.74,0.78-1.44c0.98-1.66,2.25-3.2,3.81-4.61c0.46-0.45,0.98-0.88,1.56-1.3
			c0.58-0.42,1.21-0.82,1.91-1.2c0.17,0,0.4-0.1,0.69-0.29c0.46-0.19,0.94-0.16,1.43,0.1c0.49,0.26,0.88,0.54,1.17,0.86l0.35,0.96
			c0.17,1.54-0.17,2.78-1.04,3.74c-0.64,0.83-1.31,1.63-2.04,2.4c-0.72,0.77-1.49,1.5-2.3,2.21c-0.12,0.13-0.27,0.26-0.48,0.38
			c-0.2,0.13-0.36,0.26-0.48,0.38c-0.17,0.19-0.39,0.3-0.65,0.34s-0.53,0.08-0.82,0.14c-0.46,0.32-0.87,0.23-1.21-0.29l-0.35-0.29
			h-0.17c-0.06,0-0.09,0.03-0.09,0.1c-0.29,0.45-0.45,0.96-0.48,1.54c-0.03,0.58-0.04,1.09-0.04,1.54c0.06,0.32,0.26,0.67,0.61,1.06
			c0.23,0.32,0.5,0.54,0.82,0.67c0.32,0.13,0.62,0.19,0.91,0.19c0.23,0.06,0.55,0.1,0.95,0.1c0.46-0.06,0.97-0.1,1.52-0.1
			c0.55,0,1.11-0.13,1.69-0.38c2.14-0.58,4.07-1.28,5.8-2.11c1.73-0.83,3.49-1.7,5.28-2.59c0.92-0.51,1.78-1.01,2.56-1.49
			c0.78-0.48,1.57-0.94,2.38-1.39c0.52-0.32,0.84-0.53,0.95-0.62c0.12-0.1,0.46-0.37,1.04-0.82c0.29-0.32,0.45-0.46,0.48-0.43
			c0.03,0.03,0.27-0.05,0.74-0.24c0.12-0.13,0.16-0.14,0.13-0.05c-0.03,0.1-0.02,0.24,0.04,0.43c0.06,0.26,0.13,0.56,0.22,0.91
			c0.09,0.35,0.01,0.62-0.22,0.82c-0.4,0.45-0.58,0.69-0.52,0.72c0.06,0.03-0.12,0.24-0.52,0.62c-0.87,0.71-1.73,1.31-2.6,1.82
			c-0.87,0.51-1.76,1.09-2.69,1.73c-0.64,0.32-1.23,0.64-1.78,0.96c-0.55,0.32-1.08,0.61-1.6,0.86c-1.16,0.51-2.33,1.04-3.51,1.58
			c-1.18,0.54-2.41,0.98-3.68,1.3l-2.51,0.77c-0.64,0.19-1.13,0.3-1.47,0.34C81.98,156.28,81.46,156.29,80.77,156.29z M79.64,146.02
			c0.98-0.64,1.91-1.41,2.77-2.3c0.87-0.9,1.7-1.89,2.51-2.98c-0.06,0-0.12,0.02-0.17,0.05c-0.06,0.03-0.12,0.05-0.17,0.05
			c-1.1,0.51-2.04,1.12-2.81,1.82c-0.78,0.71-1.4,1.6-1.86,2.69C79.84,145.35,79.76,145.58,79.64,146.02z"/>
		<path class="st0" d="M104.5,144.29c-0.12,0.26-0.17,0.46-0.17,0.62c0,0.16-0.06,0.3-0.17,0.43l-0.26,0.67
			c0.29-0.19,0.79-0.51,1.52-0.96c0.72-0.45,1.2-0.77,1.43-0.96v-0.1c0.52-0.38,1.02-0.67,1.52-0.86c0.49-0.19,0.97-0.35,1.43-0.48
			c1.04-0.38,2.08-0.64,3.12-0.77c0.35-0.06,0.84-0.03,1.47,0.1c0.63,0.13,1.21,0.38,1.73,0.77c0.46,0.13,0.88,0.4,1.26,0.82
			c0.38,0.42,0.76,0.85,1.17,1.3c0.12,0.32,0.19,0.64,0.22,0.96c0.03,0.32,0.1,0.64,0.22,0.96c0,0.51-0.03,0.96-0.09,1.34
			c-0.06,0.38-0.15,0.83-0.26,1.34c-0.23,0.58-0.52,1.1-0.87,1.58c-0.35,0.48-0.75,0.98-1.21,1.49l-1.39,1.54
			c-0.29,0.32-0.55,0.61-0.78,0.86c-0.23,0.26-0.49,0.45-0.78,0.58c-0.46,0.32-0.9,0.58-1.3,0.77c-0.4,0.19-0.81,0.42-1.21,0.67
			c-0.64,0.32-1.27,0.61-1.91,0.86c-0.64,0.26-1.36,0.45-2.17,0.58c-0.87,0.32-1.62,0.35-2.25,0.1c-1.04-0.19-1.79-0.45-2.25-0.77
			c-0.23,0-0.38-0.1-0.43-0.29c-0.06,0-0.09-0.13-0.09-0.38v-0.38h0.26c0.46,0.13,0.94,0.16,1.43,0.1c0.49-0.06,1.02-0.16,1.6-0.29
			l0.43-0.1c0.46-0.13,0.74-0.24,0.82-0.34c0.09-0.1,0.36-0.24,0.82-0.43c0.58-0.19,1.17-0.45,1.78-0.77
			c0.61-0.32,1.17-0.7,1.69-1.15l0.78-0.58c0.52-0.32,1-0.75,1.43-1.3c0.43-0.54,0.88-1.07,1.34-1.58c0.23-0.38,0.45-0.75,0.65-1.1
			c0.2-0.35,0.39-0.72,0.56-1.1c0.11-0.32,0.2-0.62,0.26-0.91c0.06-0.29,0.06-0.59,0-0.91l0.09-0.86c-0.12-0.58-0.4-0.96-0.87-1.15
			c-0.23-0.13-0.45-0.18-0.65-0.14c-0.2,0.03-0.42,0.02-0.65-0.05c-0.81,0.06-1.53,0.27-2.17,0.62c-0.64,0.35-1.36,0.72-2.17,1.1
			c-0.87,0.38-1.59,0.9-2.17,1.54l-0.95,0.77c-0.64,0.71-1.29,1.49-1.95,2.35c-0.66,0.86-1.23,1.87-1.69,3.02l-0.69,2.11
			c0,0.06-0.03,0.13-0.09,0.19c-0.29,0.71-0.66,0.83-1.13,0.38c-0.29-0.13-0.62-0.34-1-0.62c-0.38-0.29-0.68-0.53-0.91-0.72
			c-0.17-0.19-0.2-0.38-0.09-0.58l0.43-1.73c0.46-1.15,0.84-2.33,1.13-3.55c0.29-1.21,0.58-2.43,0.87-3.65l0.09-0.67h0.09l0.09-0.38
			c0.06-0.25,0.09-0.5,0.09-0.72c0-0.22,0.06-0.43,0.17-0.62c0.23-0.25,0.36-0.53,0.39-0.82c0.03-0.29,0.07-0.56,0.13-0.82
			c0.12-0.45,0.23-0.94,0.35-1.49c0.11-0.54,0.23-1.01,0.35-1.39c0.06-0.32,0.2-0.61,0.43-0.86c0.12-0.25,0.25-0.48,0.39-0.67
			c0.14-0.19,0.22-0.54,0.22-1.06c0.12-0.38,0.22-0.75,0.3-1.1c0.09-0.35,0.22-0.66,0.39-0.91l0.26-0.77
			c0.06-0.51,0.14-1.01,0.26-1.49c0.11-0.48,0.35-0.98,0.69-1.49v-0.19c0.29-0.45,0.49-0.99,0.61-1.63
			c0.11-0.64,0.38-1.28,0.78-1.92c0.17-0.58,0.35-1.15,0.52-1.73c0.17-0.58,0.35-1.12,0.52-1.63c0.12-0.13,0.17-0.22,0.17-0.29
			c-0.12-0.13-0.06-0.45,0.17-0.96c0.23-0.51,0.4-0.93,0.52-1.25c0-0.06,0.09-0.38,0.26-0.96c0.17-0.58,0.36-1.18,0.56-1.82
			c0.2-0.64,0.4-1.23,0.61-1.78c0.2-0.54,0.33-0.88,0.39-1.01c0.11-0.32,0.17-0.67,0.17-1.06c0-0.38,0-0.74,0-1.06
			c0.17-0.7,0.2-1.31,0.09-1.82c0.11-0.9,0.63-1.21,1.56-0.96c0.12,0.06,0.22,0.11,0.3,0.14c0.09,0.03,0.25,0.05,0.48,0.05
			c0.4,0.19,0.63,0.45,0.69,0.77c0.11,0.19,0.2,0.37,0.26,0.53c0.06,0.16,0.14,0.3,0.26,0.43c0,0.13-0.01,0.26-0.04,0.38
			c-0.03,0.13-0.04,0.22-0.04,0.29c-0.12,0.71-0.25,1.34-0.39,1.92c-0.14,0.58-0.36,1.12-0.65,1.63l-0.61,2.3l-0.35,0.86
			c-0.06,0.32-0.07,0.51-0.04,0.58c0.03,0.06,0.04,0.11,0.04,0.14c0,0.03-0.04,0.13-0.13,0.29c-0.09,0.16-0.25,0.5-0.48,1.01
			l-0.09,0.58c-0.81,2.05-1.56,4.1-2.25,6.14c-0.69,2.05-1.36,4.13-1.99,6.24c-0.64,1.47-1.23,3.02-1.78,4.66
			c-0.55,1.63-1,3.25-1.34,4.85l-0.26,0.58H104.5z"/>
		<path class="st0" d="M137.16,139.78c0,0.13-0.01,0.22-0.04,0.29c-0.03,0.06-0.04,0.16-0.04,0.29c0,0.13-0.06,0.22-0.17,0.29
			c-0.12,0.06-0.2,0.06-0.26,0c-0.06,0-0.12-0.03-0.17-0.1c-0.29-0.25-0.61-0.4-0.95-0.43c-0.35-0.03-0.72-0.01-1.13,0.05
			c-0.87,0.26-1.75,0.54-2.64,0.86c-0.9,0.32-1.75,0.74-2.56,1.25c-0.52,0.26-1.1,0.67-1.73,1.25c-0.35,0.32-0.29,0.58,0.17,0.77
			c0.23,0.13,0.4,0.19,0.52,0.19c0.35,0.13,0.69,0.24,1.04,0.34c0.35,0.1,0.72,0.21,1.13,0.34c0.52,0.13,1.02,0.29,1.52,0.48
			c0.49,0.19,1,0.38,1.52,0.58c0.4,0.19,0.72,0.3,0.95,0.34c0.23,0.03,0.55,0.21,0.95,0.53c0.4,0.26,0.75,0.35,1.04,0.29
			c0.92-0.25,1.91-0.48,2.95-0.67c0.35-0.13,0.68-0.22,1-0.29c0.32-0.06,0.68-0.13,1.08-0.19c0.17,0,0.52-0.06,1.04-0.19
			c0.52-0.13,1.07-0.27,1.65-0.43c0.58-0.16,1.13-0.3,1.65-0.43c0.52-0.13,0.87-0.19,1.04-0.19s0.35-0.03,0.52-0.1
			c0.17-0.06,0.35-0.1,0.52-0.1c0.29-0.19,0.46-0.22,0.52-0.1c0.35-0.06,0.81-0.14,1.39-0.24c0.58-0.1,0.92,0.02,1.04,0.34
			c0.35,0.32,0.46,0.59,0.35,0.82c-0.12,0.23-0.32,0.4-0.61,0.53c-0.29,0.13-0.62,0.22-1,0.29c-0.38,0.06-0.68,0.1-0.91,0.1
			c-0.4,0-0.79,0.06-1.17,0.19c-0.38,0.13-0.74,0.26-1.08,0.38l-4.94,1.25c-0.52,0.13-1.21,0.34-2.08,0.62s-1.39,0.53-1.56,0.72
			c-0.17,0.13-0.16,0.34,0.04,0.62c0.2,0.29,0.33,0.53,0.39,0.72c0.11,0.32,0.16,0.56,0.13,0.72c-0.03,0.16-0.04,0.37-0.04,0.62
			c-0.06,0.71-0.16,1.26-0.3,1.68c-0.15,0.42-0.51,0.98-1.08,1.68c-0.52,0.71-1.08,1.31-1.69,1.82c-0.61,0.51-1.23,1.02-1.86,1.54
			c-0.69,0.51-1.4,0.98-2.12,1.39c-0.72,0.42-1.46,0.79-2.21,1.1c-0.12,0.13-0.23,0.19-0.35,0.19c-0.64,0.13-1.23,0.29-1.78,0.48
			c-0.55,0.19-1.11,0.29-1.69,0.29c-0.17,0-0.32,0.03-0.43,0.1c-0.12,0.06-0.23,0.1-0.35,0.1c-0.46,0.06-0.92,0.05-1.39-0.05
			c-0.46-0.1-0.9-0.3-1.3-0.62c-0.29-0.19-0.5-0.4-0.65-0.62c-0.14-0.22-0.27-0.49-0.39-0.82l-0.26-1.44c0-0.19,0.06-0.35,0.17-0.48
			c0.29-0.96,0.69-1.73,1.21-2.3c0.64-0.64,1.26-1.23,1.86-1.78c0.61-0.54,1.26-1.04,1.95-1.49c0.35-0.19,0.66-0.42,0.95-0.67
			c0.29-0.25,0.63-0.45,1.04-0.58c0.11-0.06,0.2-0.1,0.26-0.1c0.06,0,0.12-0.03,0.17-0.1c0.81-0.51,1.63-0.99,2.47-1.44
			c0.84-0.45,1.66-0.83,2.47-1.15c0.11,0,0.17-0.06,0.17-0.19c-0.06-0.06-0.09-0.05-0.09,0.05s-0.03,0.11-0.09,0.05
			c-0.52-0.19-1.05-0.4-1.6-0.62c-0.55-0.22-1.08-0.4-1.6-0.53l-1.65-0.48c-0.4-0.06-0.81-0.22-1.21-0.48
			c-1.16-0.45-1.79-1.44-1.91-2.98c-0.17-1.02,0.09-1.89,0.78-2.59c0.17-0.19,0.35-0.37,0.52-0.53c0.17-0.16,0.35-0.3,0.52-0.43
			c0.63-0.51,1.31-0.94,2.04-1.3c0.72-0.35,1.43-0.69,2.12-1.01c1.33-0.51,2.51-0.86,3.55-1.06c0.11,0,0.24-0.01,0.39-0.05
			c0.14-0.03,0.27-0.05,0.39-0.05c0.63-0.13,1.1,0.13,1.39,0.77c0,0.06,0.06,0.23,0.17,0.48
			C137.21,138.66,137.33,139.21,137.16,139.78z M123.47,160.23c0.29,0,0.58-0.03,0.87-0.1c0.29-0.06,0.58-0.13,0.87-0.19
			c1.1-0.25,2.31-0.7,3.64-1.34c0.29-0.19,0.58-0.38,0.87-0.58c0.29-0.19,0.58-0.35,0.87-0.48l0.61-0.48l2.17-1.63
			c0.87-0.7,1.67-1.57,2.43-2.59c0.11-0.13,0.17-0.3,0.17-0.53c0-0.22,0.03-0.4,0.09-0.53c0.12-0.13,0.13-0.16,0.04-0.1
			c-0.09,0.06-0.07,0.03,0.04-0.1c0-0.13-0.09-0.35-0.26-0.67c-0.17-0.32-0.32-0.45-0.43-0.38c-0.75,0.32-1.44,0.67-2.08,1.06
			c-0.64,0.38-1.33,0.77-2.08,1.15c-0.29,0.13-0.56,0.3-0.82,0.53c-0.26,0.22-0.53,0.4-0.82,0.53l-0.52,0.29l-1.82,1.15
			c-0.12,0.13-0.26,0.22-0.43,0.29c-0.17,0.06-0.32,0.16-0.43,0.29c-0.35,0.32-0.71,0.62-1.08,0.91c-0.38,0.29-0.74,0.59-1.08,0.91
			c-0.69,0.58-1.27,1.31-1.73,2.21l0.09,0.19C123.07,160.17,123.35,160.23,123.47,160.23z"/>
		<path class="st0" d="M154.48,155.43c-0.29,0-0.61-0.06-0.95-0.19c-0.35-0.13-0.75-0.25-1.21-0.38c-0.87-0.51-1.5-0.98-1.91-1.39
			c-0.4-0.42-0.75-1.17-1.04-2.26c-0.46-1.15-0.58-2.33-0.35-3.55l0.78-3.07c0.29-0.58,0.58-1.18,0.87-1.82
			c0.29-0.64,0.52-1.25,0.69-1.82c0.06,0,0.06-0.03,0-0.1c-0.06-0.06-0.06-0.13,0-0.19c0.06-0.13,0.17-0.22,0.35-0.29
			c0.17-0.06,0.32-0.06,0.43,0c0.23,0.13,0.43,0.24,0.61,0.34s0.35,0.21,0.52,0.34c0.06,0.06,0.09,0.11,0.09,0.14
			c0,0.03,0.06,0.08,0.17,0.14c0.35,0.38,0.53,0.74,0.56,1.06c0.03,0.32-0.1,0.74-0.39,1.25l-1.47,3.74
			c-0.17,0.58-0.33,1.15-0.48,1.73c-0.15,0.58-0.16,1.15-0.04,1.73c0.06,1.09,0.56,1.71,1.52,1.87c0.95,0.16,1.83,0.18,2.64,0.05
			c0.81-0.13,1.7-0.37,2.69-0.72c0.98-0.35,1.95-0.77,2.9-1.25c0.95-0.48,1.85-0.99,2.69-1.54c0.84-0.54,1.54-1.07,2.12-1.58
			c0.35-0.32,0.55-0.51,0.61-0.58c0.06-0.06,0.12-0.1,0.17-0.1c0.06,0,0.14-0.05,0.26-0.14c0.12-0.1,0.4-0.34,0.87-0.72
			c0.17-0.19,0.43-0.43,0.78-0.72c0.35-0.29,0.61-0.53,0.78-0.72c0.23-0.13,0.5-0.34,0.82-0.62c0.32-0.29,0.63-0.56,0.95-0.82
			c0.32-0.25,0.61-0.42,0.87-0.48c0.26-0.06,0.48,0.03,0.65,0.29c0.12,0.26,0.09,0.56-0.09,0.91c-0.17,0.35-0.17,0.69,0,1.01
			l-0.17,0.58c-0.12,0.32-0.26,0.51-0.43,0.58c-0.17,0.06-0.4,0.13-0.69,0.19c-0.4,0.38-0.78,0.74-1.13,1.06
			c-0.35,0.32-0.69,0.71-1.04,1.15c-0.58,0.51-1.04,0.9-1.39,1.15c-0.35,0.26-0.65,0.5-0.91,0.72c-0.26,0.22-0.53,0.43-0.82,0.62
			c-0.29,0.19-0.64,0.45-1.04,0.77c0,0.06-0.15,0.13-0.43,0.19c-0.29,0.06-0.46,0.13-0.52,0.19c-0.4,0.51-0.87,0.86-1.39,1.06
			c-0.52,0.19-1.21,0.51-2.08,0.96c-0.87,0.26-1.86,0.58-2.99,0.96C156.78,155.53,155.63,155.62,154.48,155.43z M155.26,133.64
			c-0.23-0.13-0.38-0.19-0.43-0.19c-0.12-0.06-0.2-0.13-0.26-0.19c-0.06-0.06-0.14-0.16-0.26-0.29c-0.29-0.51-0.38-1.09-0.26-1.73
			c0.12-0.51,0.23-1.02,0.35-1.54c0.11-0.51,0.35-1.02,0.69-1.54c0-0.32,0.06-0.42,0.17-0.29c0.35-0.19,0.63-0.29,0.87-0.29
			c0.52,0.19,1.01,0.54,1.47,1.06c0.29,0.19,0.42,0.4,0.39,0.62c-0.03,0.22-0.07,0.5-0.13,0.82c0,0.13-0.03,0.24-0.09,0.34
			c-0.06,0.1-0.12,0.21-0.17,0.34c-0.4,0.51-0.75,1.12-1.04,1.82c0.17,0.13,0.14,0.23-0.09,0.29
			C156.18,133.38,155.78,133.64,155.26,133.64z"/>
		<path class="st0" d="M171.63,140.07c0.06-0.38,0.13-0.74,0.22-1.06c0.09-0.32,0.16-0.64,0.22-0.96c0,0.07,0.06-0.11,0.17-0.53
			c0.11-0.42,0.26-0.94,0.43-1.58c0.17-0.64,0.35-1.3,0.52-1.97c0.17-0.67,0.35-1.23,0.52-1.68c0.29-0.7,0.46-1.2,0.52-1.49
			c0.06-0.29,0.23-0.78,0.52-1.49c0.12-0.19,0.26-0.48,0.43-0.86s0.35-0.8,0.52-1.25c0.17-0.45,0.32-0.86,0.43-1.25
			c0.11-0.38,0.17-0.67,0.17-0.86l-0.09,0.1h-0.09c-0.12-0.13-0.2-0.1-0.26,0.1l-1.56,0.58l-2.43,0.96
			c-0.29,0.13-0.48,0.19-0.56,0.19c-0.09,0-0.15,0-0.17,0c-0.03,0-0.07,0.02-0.13,0.05c-0.06,0.03-0.2,0.11-0.43,0.24
			c-0.29,0.13-0.62,0.24-1,0.34c-0.38,0.1-0.79,0.21-1.26,0.34c-0.23,0-0.49-0.13-0.78-0.38c-0.23-0.13-0.27-0.34-0.13-0.62
			c0.15-0.29,0.19-0.46,0.13-0.53l-0.09-0.1c-0.06-0.45,0.04-0.7,0.3-0.77c0.26-0.06,0.51-0.1,0.74-0.1l1.73-0.67
			c0.06-0.06,0.12-0.14,0.17-0.24c0.06-0.1,0.17-0.08,0.35,0.05c0.46-0.25,0.84-0.42,1.13-0.48c0.23-0.13,0.4-0.19,0.52-0.19
			c0.35-0.25,0.71-0.43,1.08-0.53c0.38-0.1,0.74-0.18,1.08-0.24c0.12-0.06,0.23-0.13,0.35-0.19c0.12-0.06,0.23-0.1,0.35-0.1
			c0.29-0.06,0.55-0.14,0.78-0.24c0.23-0.1,0.49-0.21,0.78-0.34c0.4-0.19,0.61-0.35,0.61-0.48c0-0.06,0.03-0.13,0.09-0.19v-0.1
			l0.52-1.44l3.81-10.75c0.06-0.13,0.12-0.3,0.17-0.53c0.06-0.22,0.14-0.5,0.26-0.82l0.26-0.48c0.12-0.32,0.46-0.48,1.04-0.48
			c0.58,0,1.01,0.13,1.3,0.38c0.06,0.13,0.13,0.29,0.22,0.48c0.09,0.19,0.19,0.38,0.3,0.58c0.06,0.13,0.12,0.32,0.17,0.58
			c0.06,0.26,0.03,0.48-0.09,0.67c-0.98,1.92-1.82,3.78-2.51,5.57c-0.69,1.79-1.44,3.68-2.25,5.66c-0.12,0.13-0.1,0.18,0.04,0.14
			c0.14-0.03,0.25-0.02,0.3,0.05c1.21-0.32,2.15-0.54,2.82-0.67c0.66-0.13,1.54-0.35,2.64-0.67c0.35,0,0.66-0.08,0.95-0.24
			c0.29-0.16,0.58-0.14,0.87,0.05c0.11-0.06,0.26-0.08,0.43-0.05c0.17,0.03,0.32-0.01,0.43-0.14c0.52-0.19,1.04-0.16,1.56,0.1
			c0.23-0.13,0.4-0.16,0.52-0.1c0.35-0.19,0.68-0.21,1-0.05c0.32,0.16,0.68,0.24,1.08,0.24c0.12-0.06,0.16-0.03,0.13,0.1
			c-0.03,0.13-0.01,0.19,0.04,0.19c0.17,0,0.27,0.05,0.3,0.14c0.03,0.1-0.02,0.14-0.13,0.14c-0.29,0.13-0.4,0.27-0.35,0.43
			c0.06,0.16,0.06,0.24,0,0.24c-0.46,0.13-0.9,0.21-1.3,0.24c-0.4,0.03-0.84,0.14-1.3,0.34c-0.29,0-0.56,0.02-0.82,0.05
			c-0.26,0.03-0.53,0.11-0.82,0.24l-0.35,0.19c-0.64-0.06-1.31,0.02-2.04,0.24c-0.72,0.23-1.43,0.4-2.12,0.53
			c-0.35,0.13-0.62,0.24-0.82,0.34c-0.2,0.1-0.45,0.21-0.74,0.34l-1.47,0.29l-1.3,0.48c-0.29,0-0.45,0.06-0.48,0.19
			c-0.03,0.13-0.1,0.26-0.22,0.38c-0.06,0.06-0.16,0.32-0.3,0.77c-0.15,0.45-0.29,0.93-0.43,1.44c-0.15,0.51-0.3,0.99-0.48,1.44
			c-0.17,0.45-0.29,0.74-0.35,0.86c-0.69,2.24-1.39,4.35-2.08,6.34c-0.69,1.98-1.3,4.02-1.82,6.1c-0.52,2.08-0.95,4.27-1.3,6.58
			c-0.35,2.3-0.52,4.86-0.52,7.68c0,1.54,0.03,2.64,0.09,3.31c0.06,0.67,0.13,1.14,0.22,1.39c0.09,0.26,0.17,0.42,0.26,0.48
			c0.09,0.06,0.19,0.23,0.3,0.48c0.35,0.06,0.65,0.21,0.91,0.43c0.26,0.23,0.42,0.46,0.48,0.72c0.06,0.26-0.01,0.5-0.22,0.72
			c-0.2,0.22-0.59,0.34-1.17,0.34c-0.12,0-0.23-0.06-0.35-0.19c-0.81-0.32-1.31-0.56-1.52-0.72c-0.2-0.16-0.42-0.56-0.65-1.2
			c-0.46-0.9-0.74-2.11-0.82-3.65s-0.13-2.88-0.13-4.03l0.17-3.55c0-0.64,0.03-1.09,0.09-1.34c0.06-0.25,0.14-0.7,0.26-1.34
			c0.06-0.83,0.22-1.97,0.48-3.41c0.26-1.44,0.5-2.58,0.74-3.41L171.63,140.07z"/>
		<path class="st0" d="M188.26,156.29c-0.64-0.13-1.29-0.24-1.95-0.34c-0.66-0.1-1.23-0.37-1.69-0.82c-0.63-0.7-1.23-1.47-1.78-2.3
			c-0.55-0.83-0.76-1.76-0.65-2.78c0-0.13,0.01-0.4,0.04-0.82c0.03-0.42,0.1-0.69,0.22-0.82l0.17-0.58
			c0.29-0.77,0.49-1.28,0.61-1.54c0.12-0.26,0.38-0.74,0.78-1.44c0.98-1.66,2.25-3.2,3.81-4.61c0.46-0.45,0.98-0.88,1.56-1.3
			c0.58-0.42,1.21-0.82,1.91-1.2c0.17,0,0.4-0.1,0.69-0.29c0.46-0.19,0.94-0.16,1.43,0.1c0.49,0.26,0.88,0.54,1.17,0.86l0.35,0.96
			c0.17,1.54-0.17,2.78-1.04,3.74c-0.64,0.83-1.31,1.63-2.04,2.4c-0.72,0.77-1.49,1.5-2.3,2.21c-0.12,0.13-0.27,0.26-0.48,0.38
			c-0.2,0.13-0.36,0.26-0.48,0.38c-0.17,0.19-0.39,0.3-0.65,0.34s-0.53,0.08-0.82,0.14c-0.46,0.32-0.87,0.23-1.21-0.29l-0.35-0.29
			h-0.17c-0.06,0-0.09,0.03-0.09,0.1c-0.29,0.45-0.45,0.96-0.48,1.54c-0.03,0.58-0.04,1.09-0.04,1.54c0.06,0.32,0.26,0.67,0.61,1.06
			c0.23,0.32,0.5,0.54,0.82,0.67c0.32,0.13,0.62,0.19,0.91,0.19c0.23,0.06,0.55,0.1,0.95,0.1c0.46-0.06,0.97-0.1,1.52-0.1
			c0.55,0,1.11-0.13,1.69-0.38c2.14-0.58,4.07-1.28,5.8-2.11c1.73-0.83,3.49-1.7,5.28-2.59c0.92-0.51,1.78-1.01,2.56-1.49
			c0.78-0.48,1.57-0.94,2.38-1.39c0.52-0.32,0.84-0.53,0.95-0.62c0.12-0.1,0.46-0.37,1.04-0.82c0.29-0.32,0.45-0.46,0.48-0.43
			c0.03,0.03,0.27-0.05,0.74-0.24c0.12-0.13,0.16-0.14,0.13-0.05c-0.03,0.1-0.02,0.24,0.04,0.43c0.06,0.26,0.13,0.56,0.22,0.91
			c0.09,0.35,0.01,0.62-0.22,0.82c-0.4,0.45-0.58,0.69-0.52,0.72c0.06,0.03-0.12,0.24-0.52,0.62c-0.87,0.71-1.73,1.31-2.6,1.82
			c-0.87,0.51-1.76,1.09-2.69,1.73c-0.64,0.32-1.23,0.64-1.78,0.96c-0.55,0.32-1.08,0.61-1.6,0.86c-1.16,0.51-2.33,1.04-3.51,1.58
			c-1.18,0.54-2.41,0.98-3.68,1.3l-2.51,0.77c-0.64,0.19-1.13,0.3-1.47,0.34C189.47,156.28,188.95,156.29,188.26,156.29z
			 M187.13,146.02c0.98-0.64,1.91-1.41,2.77-2.3c0.87-0.9,1.7-1.89,2.51-2.98c-0.06,0-0.12,0.02-0.17,0.05
			c-0.06,0.03-0.12,0.05-0.17,0.05c-1.1,0.51-2.04,1.12-2.81,1.82c-0.78,0.71-1.4,1.6-1.86,2.69
			C187.34,145.35,187.25,145.58,187.13,146.02z"/>
		<path class="st0" d="M221,139.78c0,0.13-0.01,0.22-0.04,0.29c-0.03,0.06-0.04,0.16-0.04,0.29c0,0.13-0.06,0.22-0.17,0.29
			c-0.12,0.06-0.2,0.06-0.26,0c-0.06,0-0.12-0.03-0.17-0.1c-0.29-0.25-0.61-0.4-0.95-0.43c-0.35-0.03-0.72-0.01-1.13,0.05
			c-0.87,0.26-1.75,0.54-2.64,0.86c-0.9,0.32-1.75,0.74-2.56,1.25c-0.52,0.26-1.1,0.67-1.73,1.25c-0.35,0.32-0.29,0.58,0.17,0.77
			c0.23,0.13,0.4,0.19,0.52,0.19c0.35,0.13,0.69,0.24,1.04,0.34c0.35,0.1,0.72,0.21,1.13,0.34c0.52,0.13,1.02,0.29,1.52,0.48
			c0.49,0.19,1,0.38,1.52,0.58c0.4,0.19,0.72,0.3,0.95,0.34c0.23,0.03,0.55,0.21,0.95,0.53c0.4,0.26,0.75,0.35,1.04,0.29
			c0.92-0.25,1.91-0.48,2.95-0.67c0.35-0.13,0.68-0.22,1-0.29c0.32-0.06,0.68-0.13,1.08-0.19c0.17,0,0.52-0.06,1.04-0.19
			c0.52-0.13,1.07-0.27,1.65-0.43c0.58-0.16,1.13-0.3,1.65-0.43c0.52-0.13,0.87-0.19,1.04-0.19s0.35-0.03,0.52-0.1
			c0.17-0.06,0.35-0.1,0.52-0.1c0.29-0.19,0.46-0.22,0.52-0.1c0.35-0.06,0.81-0.14,1.39-0.24c0.58-0.1,0.92,0.02,1.04,0.34
			c0.35,0.32,0.46,0.59,0.35,0.82c-0.12,0.23-0.32,0.4-0.61,0.53c-0.29,0.13-0.62,0.22-1,0.29c-0.38,0.06-0.68,0.1-0.91,0.1
			c-0.4,0-0.79,0.06-1.17,0.19c-0.38,0.13-0.74,0.26-1.08,0.38l-4.94,1.25c-0.52,0.13-1.21,0.34-2.08,0.62s-1.39,0.53-1.56,0.72
			c-0.17,0.13-0.16,0.34,0.04,0.62c0.2,0.29,0.33,0.53,0.39,0.72c0.11,0.32,0.16,0.56,0.13,0.72c-0.03,0.16-0.04,0.37-0.04,0.62
			c-0.06,0.71-0.16,1.26-0.3,1.68c-0.15,0.42-0.51,0.98-1.08,1.68c-0.52,0.71-1.08,1.31-1.69,1.82c-0.61,0.51-1.23,1.02-1.86,1.54
			c-0.69,0.51-1.4,0.98-2.12,1.39c-0.72,0.42-1.46,0.79-2.21,1.1c-0.12,0.13-0.23,0.19-0.35,0.19c-0.64,0.13-1.23,0.29-1.78,0.48
			c-0.55,0.19-1.11,0.29-1.69,0.29c-0.17,0-0.32,0.03-0.43,0.1c-0.12,0.06-0.23,0.1-0.35,0.1c-0.46,0.06-0.92,0.05-1.39-0.05
			c-0.46-0.1-0.9-0.3-1.3-0.62c-0.29-0.19-0.5-0.4-0.65-0.62c-0.14-0.22-0.27-0.49-0.39-0.82l-0.26-1.44c0-0.19,0.06-0.35,0.17-0.48
			c0.29-0.96,0.69-1.73,1.21-2.3c0.64-0.64,1.26-1.23,1.86-1.78c0.61-0.54,1.26-1.04,1.95-1.49c0.35-0.19,0.66-0.42,0.95-0.67
			c0.29-0.25,0.63-0.45,1.04-0.58c0.11-0.06,0.2-0.1,0.26-0.1c0.06,0,0.12-0.03,0.17-0.1c0.81-0.51,1.63-0.99,2.47-1.44
			c0.84-0.45,1.66-0.83,2.47-1.15c0.11,0,0.17-0.06,0.17-0.19c-0.06-0.06-0.09-0.05-0.09,0.05s-0.03,0.11-0.09,0.05
			c-0.52-0.19-1.05-0.4-1.6-0.62c-0.55-0.22-1.08-0.4-1.6-0.53l-1.65-0.48c-0.4-0.06-0.81-0.22-1.21-0.48
			c-1.16-0.45-1.79-1.44-1.91-2.98c-0.17-1.02,0.09-1.89,0.78-2.59c0.17-0.19,0.35-0.37,0.52-0.53c0.17-0.16,0.35-0.3,0.52-0.43
			c0.63-0.51,1.31-0.94,2.04-1.3c0.72-0.35,1.43-0.69,2.12-1.01c1.33-0.51,2.51-0.86,3.55-1.06c0.11,0,0.24-0.01,0.39-0.05
			c0.14-0.03,0.27-0.05,0.39-0.05c0.63-0.13,1.1,0.13,1.39,0.77c0,0.06,0.06,0.23,0.17,0.48C221.06,138.66,221.18,139.21,221,139.78
			z M207.32,160.23c0.29,0,0.58-0.03,0.87-0.1c0.29-0.06,0.58-0.13,0.87-0.19c1.1-0.25,2.31-0.7,3.64-1.34
			c0.29-0.19,0.58-0.38,0.87-0.58c0.29-0.19,0.58-0.35,0.87-0.48l0.61-0.48l2.17-1.63c0.87-0.7,1.67-1.57,2.43-2.59
			c0.11-0.13,0.17-0.3,0.17-0.53c0-0.22,0.03-0.4,0.09-0.53c0.12-0.13,0.13-0.16,0.04-0.1c-0.09,0.06-0.07,0.03,0.04-0.1
			c0-0.13-0.09-0.35-0.26-0.67c-0.17-0.32-0.32-0.45-0.43-0.38c-0.75,0.32-1.44,0.67-2.08,1.06c-0.64,0.38-1.33,0.77-2.08,1.15
			c-0.29,0.13-0.56,0.3-0.82,0.53c-0.26,0.22-0.53,0.4-0.82,0.53l-0.52,0.29l-1.82,1.15c-0.12,0.13-0.26,0.22-0.43,0.29
			c-0.17,0.06-0.32,0.16-0.43,0.29c-0.35,0.32-0.71,0.62-1.08,0.91c-0.38,0.29-0.74,0.59-1.08,0.91c-0.69,0.58-1.27,1.31-1.73,2.21
			l0.09,0.19C206.91,160.17,207.2,160.23,207.32,160.23z"/>
		<path class="st0" d="M269.77,134.31c0.06,0.13,0.12,0.3,0.17,0.53c0.06,0.23,0.07,0.45,0.04,0.67c-0.03,0.23-0.1,0.4-0.22,0.53
			c-0.12,0.13-0.32,0.16-0.61,0.1c-0.06,0-0.14-0.01-0.26-0.05c-0.12-0.03-0.17,0.02-0.17,0.14c-0.35,0.13-0.88,0.19-1.6,0.19
			c-0.72,0-1.23,0.03-1.52,0.1c-0.81,0.13-1.79,0.3-2.94,0.53c-1.16,0.23-2.25,0.5-3.29,0.82c-0.29,0.06-0.52,0.21-0.69,0.43
			c-0.17,0.23-0.35,0.46-0.52,0.72l-0.17,0.67c-0.4,1.22-0.78,2.43-1.13,3.65c-0.35,1.22-0.66,2.43-0.95,3.65
			c-0.29,1.34-0.58,2.67-0.87,3.98c-0.29,1.31-0.58,2.64-0.87,3.98c-0.06,0.32-0.09,0.61-0.09,0.86c0,0.26-0.06,0.54-0.17,0.86
			c-0.12,0.51-0.22,1.04-0.3,1.58c-0.09,0.54-0.22,1.07-0.39,1.58c0,0.51-0.04,1.01-0.13,1.49c-0.09,0.48-0.16,0.98-0.22,1.49v0.77
			c0.12,0.38,0.09,0.71-0.09,0.96c-0.12,0.51-0.16,1.06-0.13,1.63c0.03,0.58,0.04,1.15,0.04,1.73l0.09,0.67
			c0.06,0.51,0.13,1.02,0.22,1.54c0.09,0.51,0.25,1.02,0.48,1.54c0.06,0,0.09,0.03,0.09,0.1c0.06,0.13,0.06,0.26,0,0.38
			c-0.06,0.13-0.15,0.19-0.26,0.19c-0.17,0.06-0.49,0.1-0.95,0.1c-0.52,0-0.95-0.22-1.3-0.67l-0.78-1.73l-0.17-0.58
			c0.06-0.51,0-1.06-0.17-1.63c0.06-0.51,0.09-1.01,0.09-1.49s0-0.97,0-1.49l0.52-4.8c-0.12-0.45-0.06-0.83,0.17-1.15
			c0-0.45,0.07-0.86,0.22-1.25c0.15-0.38,0.16-0.83,0.04-1.34c0-0.13,0.04-0.22,0.13-0.29c0.09-0.06,0.1-0.16,0.04-0.29l1.04-4.51
			c0-0.7,0.15-1.47,0.43-2.3c0-0.32,0-0.61,0-0.86c0-0.25,0.03-0.54,0.09-0.86c0.06-0.32,0.14-0.58,0.26-0.77
			c0.11-0.19,0.23-0.38,0.35-0.58c0.12-0.51,0.25-1.07,0.39-1.68c0.14-0.61,0.27-1.2,0.39-1.78c0.06-0.32,0.12-0.62,0.17-0.91
			c0.06-0.29,0.2-0.59,0.43-0.91v-0.1c0.11-0.13,0.19-0.35,0.22-0.67c0.03-0.32,0.01-0.48-0.04-0.48c-0.06,0-0.17,0-0.35,0
			s-0.29,0.03-0.35,0.1c-0.69,0.13-1.4,0.29-2.12,0.48c-0.72,0.19-1.34,0.38-1.86,0.58c-0.29,0.13-0.48,0.18-0.56,0.14
			s-0.17-0.06-0.26-0.1c-0.09-0.03-0.19-0.05-0.3-0.05c-0.12,0-0.29,0.1-0.52,0.29l-1.04,0.38c-0.4,0.13-0.66,0.1-0.78-0.1
			c-0.17-0.19-0.22-0.37-0.13-0.53c0.09-0.16,0.07-0.4-0.04-0.72c-0.11-0.64-0.03-1.06,0.26-1.25c0.06,0,0.09-0.01,0.09-0.05
			c0-0.03,0.03-0.05,0.09-0.05c0.64-0.19,1.1-0.29,1.39-0.29c0.29,0,0.75-0.16,1.39-0.48c0.4-0.06,0.61-0.11,0.61-0.14
			c0-0.03,0.23-0.11,0.69-0.24c0.4-0.13,0.91-0.29,1.52-0.48c0.61-0.19,1.2-0.32,1.78-0.38c0.23-0.25,0.43-0.38,0.61-0.38
			s0.38,0,0.61,0c0.11-0.13,0.26-0.25,0.43-0.38c0.17-0.13,0.26-0.32,0.26-0.58l0.17-0.19c0.06-0.32,0.11-0.66,0.17-1.01
			c0.06-0.35,0.23-0.69,0.52-1.01c0.12-0.32,0.22-0.64,0.3-0.96c0.09-0.32,0.16-0.67,0.22-1.06c0.12-0.13,0.17-0.24,0.17-0.34
			c0-0.1,0.03-0.21,0.09-0.34c0.11-0.19,0.24-0.43,0.39-0.72c0.14-0.29,0.27-0.59,0.39-0.91l0.69-1.63c0.12-0.45,0.26-0.88,0.43-1.3
			c0.17-0.42,0.32-0.82,0.43-1.2c0.29-0.7,0.58-1.42,0.87-2.16c0.29-0.73,0.63-1.49,1.04-2.26c0.23-0.51,0.46-1.02,0.69-1.54
			c0.23-0.51,0.46-1.06,0.69-1.63c0.35-0.7,0.71-1.42,1.08-2.16c0.38-0.73,0.79-1.42,1.26-2.06l0.52-1.15
			c0.35-0.58,0.71-1.1,1.08-1.58c0.38-0.48,0.79-0.97,1.26-1.49l0.95-0.67c0.23-0.19,0.5-0.35,0.82-0.48c0.32-0.13,0.71-0.13,1.17,0
			h0.09c1.15,0.26,2.08,0.72,2.77,1.39s1.27,1.55,1.73,2.64c0.35,0.77,0.52,1.5,0.52,2.21c0.17,0.51,0.09,0.99-0.26,1.44
			c-0.35,0.45-0.75,0.61-1.21,0.48c-0.46-0.32-0.84-0.62-1.13-0.91c-0.29-0.29-0.43-0.75-0.43-1.39c-0.06-0.64-0.35-1.34-0.87-2.11
			c-0.12-0.25-0.32-0.45-0.61-0.58c-0.58,0-1.1,0.26-1.56,0.77c-0.58,0.45-1.04,1.02-1.39,1.73c-1.79,2.56-3.18,5.09-4.16,7.58
			c-0.4,0.9-0.82,1.79-1.26,2.69c-0.43,0.9-0.82,1.82-1.17,2.78c-0.12,0.45-0.26,0.93-0.43,1.44c-0.17,0.51-0.38,0.99-0.61,1.44
			c-0.23,0.51-0.46,1.07-0.69,1.68c-0.23,0.61-0.43,1.2-0.61,1.78l-0.52,1.82c-0.06,0.13-0.17,0.27-0.35,0.43
			c-0.17,0.16-0.2,0.27-0.09,0.34l4.94-0.96c0.46,0,1.11,0,1.95,0c0.84,0,1.49,0.03,1.95,0.1c0.29,0,0.55,0.03,0.78,0.1
			C269.31,134.18,269.54,134.25,269.77,134.31z"/>
		<path class="st0" d="M282.24,141.13c0.12,0.9,0.12,1.55,0,1.97c-0.12,0.42-0.26,0.88-0.43,1.39c-0.23,0.71-0.39,1.23-0.48,1.58
			c-0.09,0.35-0.27,0.88-0.56,1.58c0,0.06-0.03,0.16-0.09,0.29c-0.06,0.13-0.06,0.22,0,0.29c1.27-0.19,2.38-0.38,3.33-0.58
			c0.95-0.19,1.83-0.4,2.64-0.62c0.81-0.22,1.57-0.5,2.3-0.82c0.72-0.32,1.52-0.7,2.38-1.15c0.4-0.25,0.68-0.43,0.82-0.53
			c0.14-0.1,0.27-0.21,0.39-0.34c0.12-0.13,0.27-0.3,0.48-0.53c0.2-0.22,0.59-0.59,1.17-1.1c0.06,0,0.1-0.03,0.13-0.1
			c0.03-0.06,0.07-0.1,0.13-0.1c0.12-0.13,0.33-0.22,0.65-0.29c0.32-0.06,0.56-0.03,0.74,0.1c0.06,0.13,0.06,0.19,0,0.19
			c-0.06,0-0.03,0.03,0.09,0.1c0,0.07,0.1,0.1,0.3,0.1c0.2,0,0.27,0.03,0.22,0.1c-0.17,0.96-0.64,1.6-1.39,1.92
			c-0.35,0.32-0.59,0.51-0.74,0.58c-0.14,0.06-0.42,0.22-0.82,0.48c-0.75,0.58-1.29,0.98-1.6,1.2c-0.32,0.23-0.58,0.4-0.78,0.53
			c-0.2,0.13-0.45,0.26-0.74,0.38c-0.29,0.13-0.78,0.35-1.47,0.67c-0.87,0.45-2.11,0.9-3.73,1.34c-1.62,0.45-3.09,0.67-4.42,0.67
			c-0.12,0-0.25,0-0.39,0c-0.15,0-0.27,0.03-0.39,0.1c-0.23,0.06-0.36,0.16-0.39,0.29c-0.03,0.13-0.07,0.32-0.13,0.58
			c-0.29,0.51-0.59,0.9-0.91,1.15c-0.32,0.26-0.62,0.64-0.91,1.15l-0.69,0.86c-0.46,0.58-1.01,1.02-1.65,1.34
			c-0.64,0.32-1.27,0.48-1.91,0.48c-0.29,0.06-0.66,0.05-1.13-0.05c-0.46-0.1-0.75-0.21-0.87-0.34c-0.64-0.38-1.13-0.93-1.47-1.63
			c-0.35-0.7-0.52-1.41-0.52-2.11c-0.17-1.92,0.09-3.65,0.78-5.18c0.12-0.51,0.25-0.97,0.39-1.39c0.14-0.42,0.3-0.88,0.48-1.39
			c0.12-0.25,0.19-0.46,0.22-0.62c0.03-0.16,0.1-0.3,0.22-0.43c0.35-0.45,0.61-0.99,0.78-1.63c0.4-0.83,0.79-1.39,1.17-1.68
			c0.38-0.29,0.85-0.78,1.43-1.49l0.87-0.67c0.81-0.51,1.5-0.8,2.08-0.86c0.46-0.06,0.89-0.1,1.3-0.1c0.4,0,0.69,0.03,0.87,0.1
			c0.29,0.06,0.58,0.19,0.87,0.38c0.29,0.19,0.49,0.45,0.61,0.77c0.29,0.32,0.48,0.67,0.56,1.06c0.09,0.38,0.16,0.74,0.22,1.06
			C282.3,140.42,282.3,140.74,282.24,141.13z M272.02,153.32c-0.12,1.47,0.55,1.6,1.99,0.38c0.46-0.51,0.89-0.96,1.3-1.34
			c0.4-0.38,0.75-0.99,1.04-1.82c0.11-0.13,0.19-0.24,0.22-0.34c0.03-0.1,0.03-0.18,0-0.24c-0.03-0.06-0.16-0.06-0.39,0
			c-0.29-0.13-0.78-0.37-1.47-0.72c-0.69-0.35-1.21-0.82-1.56-1.39c-0.06-0.13-0.15-0.08-0.26,0.14c-0.12,0.22-0.2,0.43-0.26,0.62
			c-0.35,0.71-0.53,1.44-0.56,2.21c-0.03,0.77-0.04,1.5-0.04,2.21V153.32z M279.73,140.55c0.17-0.51-0.03-0.86-0.61-1.06
			c-0.58-0.19-0.98-0.16-1.21,0.1c-0.23,0.19-0.49,0.32-0.78,0.38c-0.69,0.58-1.26,1.22-1.69,1.92c-0.43,0.71-0.79,1.41-1.08,2.11
			c-0.29,0.51-0.43,1.09-0.43,1.73c-0.12,0.58,0.14,1.02,0.78,1.34c0,0.06,0.07,0.14,0.22,0.24c0.14,0.1,0.24,0.21,0.3,0.34
			c0.17,0.13,0.53,0.3,1.08,0.53c0.55,0.22,0.88,0.27,1,0.14c0.46-0.64,0.87-1.5,1.21-2.59c0.35-1.09,0.69-2.02,1.04-2.78
			C279.79,142.18,279.85,141.38,279.73,140.55z"/>
		<path class="st0" d="M308.66,140.07c-0.06-0.06-0.13-0.08-0.22-0.05c-0.09,0.03-0.21,0.02-0.39-0.05c-0.35-0.13-0.84-0.1-1.47,0.1
			c-0.29,0.13-0.59,0.29-0.91,0.48c-0.32,0.19-0.62,0.38-0.91,0.58c-0.52,0.32-1,0.72-1.43,1.2s-0.88,0.95-1.34,1.39
			c-0.4,0.32-0.81,0.72-1.21,1.2c-0.4,0.48-0.92,1.17-1.56,2.06c-0.17,0.38-0.39,0.78-0.65,1.2c-0.26,0.42-0.51,0.82-0.74,1.2
			c-0.12,0.32-0.26,0.54-0.43,0.67c-0.35,0.64-0.61,1.3-0.78,1.97s-0.38,1.36-0.61,2.06c0,0.13-0.01,0.26-0.04,0.38
			c-0.03,0.13-0.04,0.26-0.04,0.38c-0.12,0.26-0.3,0.45-0.56,0.58c-0.26,0.13-0.48,0.13-0.65,0c-0.64-0.19-1.18-0.51-1.65-0.96
			c-0.35-0.25-0.43-0.61-0.26-1.06c0.12-0.32,0.23-0.66,0.35-1.01c0.12-0.35,0.26-0.69,0.43-1.01c0.35-0.7,0.61-1.6,0.78-2.69
			c0.29-1.15,0.53-2.32,0.74-3.5c0.2-1.18,0.45-2.35,0.74-3.5c0.12-0.32,0.17-0.64,0.17-0.96c0-0.32,0.03-0.64,0.09-0.96
			c0.23-0.96,0.35-1.95,0.35-2.98c0-0.38,0.17-0.64,0.52-0.77c0.35-0.13,0.63-0.1,0.87,0.1c0.4,0.19,0.81,0.45,1.21,0.77
			c0.46,0.32,0.63,0.67,0.52,1.06c-0.06,0.71-0.13,1.38-0.22,2.02s-0.19,1.31-0.3,2.02v0.19h0.09c0.35-0.32,0.61-0.54,0.78-0.67
			c0.17-0.13,0.38-0.35,0.61-0.67c0.52-0.64,1.18-1.13,1.99-1.49c0.81-0.35,1.59-0.66,2.34-0.91c0.63-0.32,1.39-0.38,2.25-0.19
			c0.35,0.13,0.68,0.26,1,0.38c0.32,0.13,0.62,0.35,0.91,0.67c0.06,0.06,0.09,0.13,0.09,0.19c0,0.06,0.03,0.16,0.09,0.29
			c0.06,0.06,0.04,0.13-0.04,0.19c-0.09,0.06-0.19,0.1-0.3,0.1H308.66z"/>
		<path class="st0" d="M351.71,116.26c0.12,0,0.23,0,0.35,0c0.11,0,0.26-0.13,0.43-0.38c0.23-0.13,0.4-0.19,0.52-0.19
			c0.58-0.25,1.07-0.58,1.47-0.96c0.35-0.13,0.72-0.3,1.13-0.53c0.4-0.22,0.78-0.37,1.13-0.43c0.29-0.19,0.62-0.32,1-0.38
			c0.38-0.06,0.71-0.25,1-0.58c0.17,0.06,0.37,0.1,0.61,0.1h0.26c0.29-0.13,0.53-0.29,0.74-0.48c0.2-0.19,0.45-0.29,0.74-0.29
			s0.58-0.05,0.87-0.14s0.55-0.05,0.78,0.14c0.17,0,0.49-0.06,0.95-0.19c-0.12-0.32-0.07-0.5,0.13-0.53
			c0.2-0.03,0.39-0.11,0.56-0.24c0.17-0.13,0.38-0.21,0.61-0.24c0.23-0.03,0.4-0.11,0.52-0.24c0.12-0.19,0.2-0.29,0.26-0.29
			c0.06,0,0.12,0,0.17,0h1.04c0.17-0.13,0.38-0.19,0.61-0.19c0.12-0.06,0.23-0.06,0.35,0c0.11,0.06,0.23,0,0.35-0.19
			c0.35-0.38,0.9-0.64,1.65-0.77c0.35,0,0.71-0.05,1.08-0.14c0.37-0.1,0.76-0.14,1.17-0.14c0.46,0.06,0.81,0.03,1.04-0.1
			c0.58-0.32,1.13-0.48,1.65-0.48l0.52,0.1c0.17,0,0.32,0,0.43,0c0.12,0,0.23-0.06,0.35-0.19c0.06,0.06,0.14,0.03,0.26-0.1
			l2.51-0.67c0.29,0.13,0.63,0.14,1.04,0.05c0.4-0.1,0.84-0.08,1.3,0.05c0.17,0,0.35-0.01,0.52-0.05c0.17-0.03,0.32-0.05,0.43-0.05
			c0.4,0.19,0.84,0.13,1.3-0.19c0.46-0.25,0.95-0.25,1.47,0c0.29-0.13,0.55-0.25,0.78-0.38c0.23-0.13,0.49-0.13,0.78,0l1.39,0.48
			c0.23,0,0.4-0.1,0.52-0.29c0.29-0.32,0.61-0.48,0.95-0.48s0.66,0,0.95,0c0.35,0.06,0.71,0.06,1.08,0c0.38-0.06,0.74-0.03,1.08,0.1
			c0.35-0.13,0.72-0.16,1.13-0.1c0.4,0.06,0.75,0.16,1.04,0.29c0.69,0.13,1.36,0.21,1.99,0.24c0.63,0.03,1.27,0.02,1.91-0.05
			c0.12,0.13,0.4,0.19,0.87,0.19c0.4,0.13,0.79,0.23,1.17,0.29c0.38,0.06,0.71,0.16,1,0.29l1.73,0.29c0.29-0.06,0.49-0.05,0.61,0.05
			c0.12,0.1,0.29,0.21,0.52,0.34c0.35,0.06,0.68,0.21,1,0.43c0.32,0.22,0.68,0.37,1.08,0.43c0.75,0.26,1.56,0.61,2.42,1.06
			c0.87,0.45,1.53,1.12,1.99,2.02c0.46,1.09,0.53,1.71,0.22,1.87c-0.32,0.16-0.82,0.05-1.52-0.34c-0.23-0.32-0.48-0.53-0.74-0.62
			c-0.26-0.1-0.53-0.3-0.82-0.62c-0.64-0.26-1.27-0.48-1.91-0.67c-0.64-0.19-1.3-0.35-1.99-0.48c-0.75-0.13-1.49-0.3-2.21-0.53
			c-0.72-0.22-1.49-0.4-2.3-0.53c-0.06,0.06-0.23,0-0.52-0.19h-0.43c-0.46,0.06-0.91,0.05-1.34-0.05c-0.43-0.1-0.79-0.18-1.08-0.24
			c-0.52-0.06-1-0.13-1.43-0.19c-0.43-0.06-0.88,0-1.34,0.19c-0.46-0.13-0.92-0.22-1.39-0.29c-0.46-0.06-0.87-0.03-1.21,0.1
			c-0.52-0.13-1.04-0.14-1.56-0.05c-0.52,0.1-1.04,0.18-1.56,0.24c-0.46,0-0.98,0.03-1.56,0.1c-0.58,0.06-1.13,0.03-1.65-0.1
			c-0.41,0.13-0.84,0.19-1.3,0.19c-0.46,0-0.98,0-1.56,0c-0.35,0.19-0.69,0.29-1.04,0.29s-0.69,0.03-1.04,0.1
			c-0.58,0.13-1.16,0.24-1.73,0.34c-0.58,0.1-1.18,0.18-1.82,0.24c-0.17,0.06-0.38,0.13-0.61,0.19c-0.23,0.06-0.46,0.16-0.69,0.29
			c-0.87,0.13-1.79,0.3-2.77,0.53c-0.98,0.22-1.88,0.43-2.68,0.62l-6.58,1.82l-7.02,2.69c-0.92,0.32-1.79,0.62-2.6,0.91
			c-0.81,0.29-1.65,0.62-2.51,1.01c-0.69,0.38-1.36,0.75-1.99,1.1c-0.64,0.35-1.3,0.69-1.99,1.01c-1.44,0.64-2.9,1.36-4.37,2.16
			c-1.47,0.8-2.87,1.62-4.2,2.45c-0.69,0.45-1.43,0.88-2.21,1.3c-0.78,0.42-1.49,0.91-2.12,1.49c-0.58,0.32-1.11,0.67-1.6,1.06
			c-0.49,0.38-1.02,0.9-1.6,1.54c-0.17,0.19-0.35,0.26-0.52,0.19c-0.81,0.77-1.36,0.58-1.65-0.58c-0.23-0.32-0.4-0.59-0.52-0.82
			c-0.11-0.22-0.17-0.5-0.17-0.82c0-0.45,0.14-0.8,0.43-1.06c0-0.06,0.03-0.06,0.09,0c1.16-0.96,2.33-1.82,3.51-2.59
			c1.18-0.77,2.44-1.57,3.77-2.4c0.46,0,0.89-0.19,1.3-0.58c0.58-0.13,1.04-0.27,1.39-0.43c0.35-0.16,0.69-0.37,1.04-0.62
			c0.75-0.51,1.46-0.93,2.12-1.25c0.66-0.32,1.4-0.64,2.21-0.96l1.73-0.96c0.4-0.13,0.76-0.27,1.08-0.43
			c0.32-0.16,0.71-0.37,1.17-0.62c0.06,0.06,0.23,0,0.52-0.19c0.4-0.25,0.84-0.46,1.3-0.62c0.46-0.16,0.92-0.4,1.39-0.72
			c0.12,0.06,0.27,0.06,0.48,0C351.44,115.91,351.59,116.01,351.71,116.26z M352.75,162.92v-0.19c0-0.06,0.01-0.13,0.04-0.19
			c0.03-0.06,0.04-0.16,0.04-0.29c0.12-0.45,0.29-0.77,0.52-0.96c0.12-0.13,0.17-0.32,0.17-0.58c0.06-0.58,0.19-1.12,0.39-1.63
			c0.2-0.51,0.45-0.99,0.74-1.44c0.46-1.09,0.72-2.17,0.78-3.26c0.17-0.64,0.43-1.31,0.78-2.02c0.4-0.96,0.63-1.86,0.69-2.69
			c0.12-0.51,0.25-1.01,0.39-1.49c0.14-0.48,0.39-0.94,0.74-1.39c0.12-0.13,0.17-0.29,0.17-0.48c0.35-0.83,0.66-1.86,0.95-3.07
			c0.06-0.77,0.32-1.54,0.78-2.3l0.17-0.58c0.06-0.77,0.22-1.54,0.48-2.3c0.26-0.77,0.48-1.54,0.65-2.3
			c0.29-1.02,0.56-1.95,0.82-2.78c0.26-0.83,0.5-1.73,0.74-2.69c0.06-0.38,0.17-0.8,0.35-1.25c0.12-0.83,0.27-1.68,0.48-2.54
			c0.2-0.86,0.39-1.74,0.56-2.64c0.11-0.51,0.23-1.01,0.35-1.49c0.12-0.48,0.2-0.98,0.26-1.49l0.61-1.92
			c0.23-0.83,0.69-1.09,1.39-0.77c0.17,0.13,0.26,0.26,0.26,0.38c0,0.13,0.09,0.29,0.26,0.48c0.35,0.13,0.61,0.35,0.78,0.67
			c0.29,0.45,0.4,0.93,0.35,1.44c0,0.32-0.06,0.61-0.17,0.86c-0.12,0.51-0.25,0.98-0.39,1.39c-0.14,0.42-0.27,0.88-0.39,1.39
			c-0.12,0.58-0.25,1.1-0.39,1.58c-0.14,0.48-0.22,1.04-0.22,1.68c-0.29,0.77-0.52,1.57-0.69,2.4c-0.17,0.83-0.35,1.7-0.52,2.59
			c-0.35,1.34-0.74,2.7-1.17,4.08c-0.43,1.38-0.82,2.8-1.17,4.27c-0.12,0.51-0.26,1.01-0.43,1.49c-0.17,0.48-0.35,0.95-0.52,1.39
			c-0.41,1.28-0.81,2.56-1.21,3.84c-0.4,1.28-0.87,2.53-1.39,3.74c-0.17,0.51-0.32,0.99-0.43,1.44c-0.12,0.45-0.26,0.86-0.43,1.25
			c-0.69,2.3-1.42,4.61-2.17,6.91l-1.21,4.42l-0.17,0.58c-0.12,0.13-0.17,0.26-0.17,0.38c0,0.13-0.06,0.16-0.17,0.1l-1.47-1.06
			c-0.69-0.58-0.95-1.28-0.78-2.11V162.92z"/>
		<path class="st0" d="M395.97,104.55c0,1.02-0.03,1.7-0.09,2.02c-0.12,0.64-0.22,1.31-0.3,2.02c-0.09,0.71-0.25,1.38-0.48,2.02
			l-1.65,6.05c-0.29,1.15-0.59,2.3-0.91,3.46c-0.32,1.15-0.65,2.3-1,3.46l-1.56,5.09c-0.17,0.71-0.35,1.34-0.52,1.92
			c-0.17,0.58-0.38,1.22-0.61,1.92c-0.52,1.41-1.01,2.78-1.47,4.13c-0.46,1.34-0.98,2.69-1.56,4.03c-0.29,0.83-0.56,1.67-0.82,2.5
			c-0.26,0.83-0.51,1.7-0.74,2.59c-0.06,0.38-0.14,0.74-0.26,1.06c-0.12,0.32-0.17,0.64-0.17,0.96c0,0.06,0.03,0.13,0.09,0.19h0.09
			l0.52-0.58c0.29-0.45,0.59-0.9,0.91-1.34c0.32-0.45,0.65-0.86,1-1.25c0.46-0.51,0.92-1.02,1.39-1.54
			c0.46-0.51,0.92-0.99,1.39-1.44c0.29-0.32,0.56-0.56,0.82-0.72c0.26-0.16,0.53-0.37,0.82-0.62c1.33-0.64,2.57-0.54,3.73,0.29
			c0.29,0.19,0.53,0.4,0.74,0.62c0.2,0.22,0.42,0.46,0.65,0.72c0.46,0.45,0.78,0.96,0.95,1.54c0.17,0.51,0.27,1.01,0.3,1.49
			c0.03,0.48,0.1,0.98,0.22,1.49c0.11,0.9,0.33,1.68,0.65,2.35c0.32,0.67,0.71,1.36,1.17,2.06c0.63,0.7,1.27,1.09,1.91,1.15
			c1.5-0.06,2.71-0.25,3.64-0.58c0.92-0.32,1.96-0.83,3.12-1.54c1.1-0.7,1.95-1.26,2.56-1.68c0.61-0.42,1.37-1.07,2.29-1.97
			c0.29-0.13,0.49-0.34,0.61-0.62c0.12-0.29,0.32-0.5,0.61-0.62c0.23-0.19,0.42-0.38,0.56-0.58c0.14-0.19,0.3-0.42,0.48-0.67
			c0.11-0.19,0.35-0.3,0.69-0.34c0.35-0.03,0.58,0.05,0.69,0.24c0.12,0.19,0.23,0.26,0.35,0.19c0.11-0.06,0.23,0.06,0.35,0.38
			c0.12,0.13,0.12,0.32,0,0.58l-0.61,1.06c-0.41,0.51-0.74,0.93-1,1.25c-0.26,0.32-0.54,0.62-0.82,0.91
			c-0.29,0.29-0.59,0.58-0.91,0.86c-0.32,0.29-0.74,0.62-1.26,1.01c-0.4,0.32-0.78,0.62-1.13,0.91s-0.72,0.56-1.13,0.82
			c-0.64,0.38-1.2,0.74-1.69,1.06c-0.49,0.32-1.05,0.58-1.69,0.77c-1.44,0.45-2.82,0.67-4.11,0.67c-1.3,0-2.58-0.35-3.85-1.06
			c-0.12-0.06-0.22-0.14-0.3-0.24c-0.09-0.1-0.19-0.18-0.3-0.24c-0.98-0.7-1.72-1.5-2.21-2.4c-0.49-0.9-0.85-1.95-1.08-3.17
			c-0.12-0.51-0.23-0.99-0.35-1.44c-0.12-0.45-0.23-0.93-0.35-1.44c-0.06-0.25-0.13-0.5-0.22-0.72c-0.09-0.22-0.19-0.43-0.3-0.62
			c-0.17-0.32-0.4-0.38-0.69-0.19l-0.52,0.29c-0.52,0.51-1.03,0.96-1.52,1.34c-0.49,0.38-0.91,0.83-1.26,1.34
			c-0.35,0.51-0.71,0.98-1.08,1.39c-0.38,0.42-0.71,0.85-1,1.3c-0.52,0.77-1.01,1.52-1.47,2.26c-0.46,0.74-0.92,1.52-1.39,2.35
			c-0.12,0.32-0.27,0.62-0.48,0.91c-0.2,0.29-0.39,0.59-0.56,0.91c-0.12,0.19-0.25,0.34-0.39,0.43c-0.15,0.1-0.28,0.21-0.39,0.34
			c-0.23,0.26-0.46,0.32-0.69,0.19c-0.29-0.13-0.56-0.22-0.82-0.29c-0.26-0.06-0.5-0.22-0.74-0.48l-0.52-0.38
			c-0.63-0.45-0.89-1.12-0.78-2.02c0-0.19,0.03-0.4,0.09-0.62c0.06-0.22,0.12-0.43,0.17-0.62c0.12-0.77,0.25-1.55,0.39-2.35
			c0.14-0.8,0.36-1.58,0.65-2.35c0.23-0.9,0.46-1.76,0.69-2.59c0.23-0.83,0.52-1.63,0.87-2.4c0.63-1.86,1.26-3.7,1.86-5.52
			c0.61-1.82,1.23-3.66,1.86-5.52c0.29-0.7,0.55-1.46,0.78-2.26c0.23-0.8,0.46-1.55,0.69-2.26c0.29-0.9,0.53-1.76,0.74-2.59
			c0.2-0.83,0.45-1.66,0.74-2.5c0.29-1.09,0.58-2.21,0.87-3.36c0.29-1.15,0.58-2.27,0.87-3.36c0.23-0.96,0.48-1.92,0.74-2.88
			s0.53-1.92,0.82-2.88c0.06-0.64,0.14-1.26,0.26-1.87c0.12-0.61,0.17-1.26,0.17-1.97c-0.06-0.51-0.04-0.99,0.04-1.44
			c0.09-0.45,0.16-0.93,0.22-1.44c0.12-0.25,0.29-0.38,0.52-0.38c0.4,0,0.66,0.06,0.78,0.19l0.69,0.67c0.4,0.32,0.69,0.69,0.87,1.1
			C396.06,103.86,396.09,104.23,395.97,104.55z"/>
		<path class="st0" d="M417.46,156.29c-0.64-0.13-1.29-0.24-1.95-0.34c-0.66-0.1-1.23-0.37-1.69-0.82c-0.63-0.7-1.23-1.47-1.78-2.3
			c-0.55-0.83-0.76-1.76-0.65-2.78c0-0.13,0.01-0.4,0.04-0.82c0.03-0.42,0.1-0.69,0.22-0.82l0.17-0.58
			c0.29-0.77,0.49-1.28,0.61-1.54c0.12-0.26,0.38-0.74,0.78-1.44c0.98-1.66,2.25-3.2,3.81-4.61c0.46-0.45,0.98-0.88,1.56-1.3
			c0.58-0.42,1.21-0.82,1.91-1.2c0.17,0,0.4-0.1,0.69-0.29c0.46-0.19,0.94-0.16,1.43,0.1c0.49,0.26,0.88,0.54,1.17,0.86l0.35,0.96
			c0.17,1.54-0.17,2.78-1.04,3.74c-0.64,0.83-1.31,1.63-2.04,2.4c-0.72,0.77-1.49,1.5-2.3,2.21c-0.12,0.13-0.27,0.26-0.48,0.38
			c-0.2,0.13-0.36,0.26-0.48,0.38c-0.17,0.19-0.39,0.3-0.65,0.34c-0.26,0.03-0.53,0.08-0.82,0.14c-0.46,0.32-0.87,0.23-1.21-0.29
			l-0.35-0.29h-0.17c-0.06,0-0.09,0.03-0.09,0.1c-0.29,0.45-0.45,0.96-0.48,1.54c-0.03,0.58-0.04,1.09-0.04,1.54
			c0.06,0.32,0.26,0.67,0.61,1.06c0.23,0.32,0.5,0.54,0.82,0.67c0.32,0.13,0.62,0.19,0.91,0.19c0.23,0.06,0.55,0.1,0.95,0.1
			c0.46-0.06,0.97-0.1,1.52-0.1c0.55,0,1.11-0.13,1.69-0.38c2.14-0.58,4.07-1.28,5.8-2.11c1.73-0.83,3.49-1.7,5.28-2.59
			c0.92-0.51,1.78-1.01,2.56-1.49c0.78-0.48,1.57-0.94,2.38-1.39c0.52-0.32,0.84-0.53,0.95-0.62c0.11-0.1,0.46-0.37,1.04-0.82
			c0.29-0.32,0.45-0.46,0.48-0.43c0.03,0.03,0.27-0.05,0.74-0.24c0.12-0.13,0.16-0.14,0.13-0.05c-0.03,0.1-0.01,0.24,0.04,0.43
			c0.06,0.26,0.13,0.56,0.22,0.91c0.09,0.35,0.01,0.62-0.22,0.82c-0.4,0.45-0.58,0.69-0.52,0.72c0.06,0.03-0.12,0.24-0.52,0.62
			c-0.87,0.71-1.73,1.31-2.6,1.82c-0.87,0.51-1.76,1.09-2.69,1.73c-0.64,0.32-1.23,0.64-1.78,0.96c-0.55,0.32-1.08,0.61-1.6,0.86
			c-1.16,0.51-2.33,1.04-3.51,1.58c-1.18,0.54-2.41,0.98-3.68,1.3l-2.51,0.77c-0.64,0.19-1.13,0.3-1.47,0.34
			C418.67,156.28,418.15,156.29,417.46,156.29z M416.33,146.02c0.98-0.64,1.91-1.41,2.77-2.3c0.87-0.9,1.7-1.89,2.51-2.98
			c-0.06,0-0.12,0.02-0.17,0.05c-0.06,0.03-0.12,0.05-0.17,0.05c-1.1,0.51-2.04,1.12-2.82,1.82c-0.78,0.71-1.4,1.6-1.86,2.69
			C416.53,145.35,416.45,145.58,416.33,146.02z"/>
		<path class="st0" d="M452.88,140.07c-0.06-0.06-0.13-0.08-0.22-0.05c-0.09,0.03-0.22,0.02-0.39-0.05c-0.35-0.13-0.84-0.1-1.47,0.1
			c-0.29,0.13-0.59,0.29-0.91,0.48c-0.32,0.19-0.62,0.38-0.91,0.58c-0.52,0.32-1,0.72-1.43,1.2c-0.43,0.48-0.88,0.95-1.34,1.39
			c-0.4,0.32-0.81,0.72-1.21,1.2c-0.41,0.48-0.92,1.17-1.56,2.06c-0.17,0.38-0.39,0.78-0.65,1.2c-0.26,0.42-0.51,0.82-0.74,1.2
			c-0.12,0.32-0.26,0.54-0.43,0.67c-0.35,0.64-0.61,1.3-0.78,1.97s-0.38,1.36-0.61,2.06c0,0.13-0.01,0.26-0.04,0.38
			c-0.03,0.13-0.04,0.26-0.04,0.38c-0.12,0.26-0.3,0.45-0.56,0.58c-0.26,0.13-0.48,0.13-0.65,0c-0.64-0.19-1.18-0.51-1.65-0.96
			c-0.35-0.25-0.43-0.61-0.26-1.06c0.12-0.32,0.23-0.66,0.35-1.01c0.12-0.35,0.26-0.69,0.43-1.01c0.35-0.7,0.61-1.6,0.78-2.69
			c0.29-1.15,0.53-2.32,0.74-3.5c0.2-1.18,0.45-2.35,0.74-3.5c0.11-0.32,0.17-0.64,0.17-0.96c0-0.32,0.03-0.64,0.09-0.96
			c0.23-0.96,0.35-1.95,0.35-2.98c0-0.38,0.17-0.64,0.52-0.77c0.35-0.13,0.63-0.1,0.87,0.1c0.4,0.19,0.81,0.45,1.21,0.77
			c0.46,0.32,0.63,0.67,0.52,1.06c-0.06,0.71-0.13,1.38-0.22,2.02s-0.19,1.31-0.3,2.02v0.19h0.09c0.35-0.32,0.61-0.54,0.78-0.67
			c0.17-0.13,0.37-0.35,0.61-0.67c0.52-0.64,1.18-1.13,1.99-1.49c0.81-0.35,1.59-0.66,2.34-0.91c0.63-0.32,1.39-0.38,2.25-0.19
			c0.35,0.13,0.68,0.26,1,0.38c0.32,0.13,0.62,0.35,0.91,0.67c0.06,0.06,0.09,0.13,0.09,0.19c0,0.06,0.03,0.16,0.09,0.29
			c0.06,0.06,0.04,0.13-0.04,0.19c-0.09,0.06-0.19,0.1-0.3,0.1H452.88z"/>
		<path class="st0" d="M474.8,153.03c-0.52,0-0.98-0.1-1.39-0.29c-0.46-0.25-0.92-0.56-1.39-0.91c-0.46-0.35-0.84-0.78-1.13-1.3
			c-0.75-1.09-1.3-2.34-1.65-3.74c0-0.19-0.09-0.29-0.26-0.29l-1.47,1.63c-0.87,0.77-1.72,1.54-2.55,2.3
			c-0.84,0.77-1.69,1.47-2.56,2.11c-0.58,0.38-1.14,0.74-1.69,1.06c-0.55,0.32-1.14,0.54-1.78,0.67c-0.64,0.26-1.36,0.38-2.17,0.38
			c-1.04,0.13-1.79-0.45-2.25-1.73l-0.69-1.44c-0.35-0.77-0.38-1.6-0.09-2.5c0.12-0.51,0.3-0.99,0.56-1.44
			c0.26-0.45,0.48-0.9,0.65-1.34l0.95-1.34c0.81-1.02,1.66-2,2.56-2.93c0.89-0.93,1.83-1.74,2.82-2.45l1.47-0.96
			c0.81-0.51,1.67-0.77,2.6-0.77c0.52,0,0.89,0.16,1.13,0.48c0.75,0.77,1.24,1.7,1.47,2.78c0,0.13-0.06,0.32-0.17,0.58
			c-0.17,0.13-0.29,0.13-0.35,0l-0.61-0.58c-0.29-0.32-0.55-0.38-0.78-0.19c-0.46,0.13-0.92,0.24-1.39,0.34
			c-0.46,0.1-0.92,0.3-1.39,0.62c-1.04,0.58-1.99,1.34-2.86,2.3c-0.23,0.13-0.43,0.32-0.61,0.58c-1.21,1.03-2.28,2.43-3.21,4.22
			c-0.46,0.58-0.78,1.31-0.95,2.21c-0.12,0.26-0.06,0.38,0.17,0.38c0.17,0.06,0.35,0.1,0.52,0.1c0.17,0,0.32,0,0.43,0
			c0.4-0.13,0.82-0.22,1.26-0.29c0.43-0.06,0.82-0.22,1.17-0.48c1.67-0.77,3.17-1.86,4.5-3.26l2.08-1.92
			c0.17-0.13,0.33-0.24,0.48-0.34c0.14-0.1,0.27-0.21,0.39-0.34c0.46-0.58,0.91-1.12,1.34-1.63c0.43-0.51,0.88-1.12,1.34-1.82
			c0.29-0.45,0.63-0.54,1.04-0.29c0.23,0.13,0.49,0.27,0.78,0.43c0.29,0.16,0.49,0.37,0.61,0.62c0.06,0.26,0.1,0.46,0.13,0.62
			c0.03,0.16,0.01,0.37-0.04,0.62c-0.06,0.38-0.1,0.8-0.13,1.25c-0.03,0.45-0.04,0.9-0.04,1.34c0,1.09,0.2,2.08,0.61,2.98
			c0.11,0.13,0.24,0.21,0.39,0.24c0.14,0.03,0.27,0.11,0.39,0.24c0.81,0.58,1.65,0.85,2.51,0.82s1.73-0.24,2.6-0.62
			c0.46-0.19,0.87-0.34,1.21-0.43s0.75-0.3,1.21-0.62c0.75-0.64,1.39-1.12,1.91-1.44s1.1-0.9,1.73-1.73
			c0.17-0.19,0.49-0.59,0.95-1.2c0.46-0.61,0.75-1.04,0.87-1.3l0.26-0.19c0-0.06,0.13-0.1,0.39-0.1s0.39,0.03,0.39,0.1l0.35,0.58
			c0.17,0.45,0.04,1.04-0.39,1.78c-0.43,0.74-0.77,1.26-1,1.58c-1.21,1.92-2.73,3.42-4.55,4.51c-1.82,1.09-3.54,1.67-5.15,1.73
			c-0.12,0-0.38,0.03-0.78,0.1C475.17,153.19,474.91,153.16,474.8,153.03z"/>
		<path class="st0" d="M487.88,139.97c0.06,0.45,0.07,0.9,0.04,1.34c-0.03,0.45-0.07,0.9-0.13,1.34c-0.12,0.32-0.17,0.62-0.17,0.91
			s-0.03,0.59-0.09,0.91l0.09,0.1c0.06,0,0.06,0.05,0,0.14c-0.06,0.1-0.06,0.14,0,0.14l1.56-1.34l0.95-1.25l0.26-0.29
			c0.4-0.58,0.76-1.04,1.08-1.39c0.32-0.35,0.79-0.75,1.43-1.2l0.78-0.77c0.29-0.13,0.56-0.27,0.82-0.43
			c0.26-0.16,0.5-0.34,0.74-0.53c0.35-0.13,0.66-0.19,0.95-0.19l0.61-0.19c0.35-0.06,0.69-0.03,1.04,0.1l0.61,0.1l0.52,0.29
			l0.61,0.29c0.46,0.19,0.84,0.5,1.13,0.91c0.29,0.42,0.55,0.85,0.78,1.3v0.29c0.23,0.32,0.36,0.72,0.39,1.2
			c0.03,0.48-0.01,0.88-0.13,1.2c0,0.32-0.01,0.62-0.04,0.91c-0.03,0.29-0.1,0.62-0.22,1.01c-0.29,0.77-0.59,1.52-0.91,2.26
			c-0.32,0.74-0.77,1.49-1.34,2.26c-0.41,0.51-0.81,0.98-1.21,1.39c-0.4,0.42-0.87,0.88-1.39,1.39c-0.29,0.19-0.59,0.35-0.91,0.48
			c-0.32,0.13-0.62,0.29-0.91,0.48c-0.29,0.13-0.56,0.21-0.82,0.24c-0.26,0.03-0.51,0.08-0.74,0.14c-0.23,0.13-0.61,0.14-1.13,0.05
			c-0.52-0.1-0.92-0.21-1.21-0.34c-0.35-0.06-0.58-0.21-0.69-0.43c-0.12-0.22-0.14-0.43-0.09-0.62c0.06-0.19,0.19-0.34,0.39-0.43
			c0.2-0.1,0.42-0.05,0.65,0.14c0.11-0.13,0.14-0.17,0.09-0.14c-0.06,0.03-0.03-0.02,0.09-0.14c0.63-0.25,1.21-0.53,1.73-0.82
			s0.95-0.69,1.3-1.2c0.06,0.06,0.17,0,0.35-0.19c0.17-0.25,0.29-0.38,0.35-0.38c0.06,0,0.26-0.25,0.61-0.77
			c0.29-0.38,0.56-0.77,0.82-1.15s0.53-0.77,0.82-1.15c0.23-0.51,0.43-1.06,0.61-1.63c0.17-0.58,0.29-1.15,0.35-1.73
			c0.23-0.64,0.2-1.54-0.09-2.69l0.09-0.19c0-0.32-0.12-0.48-0.35-0.48l-0.69-0.1c-0.29,0.06-0.39,0.08-0.3,0.05
			c0.09-0.03-0.01,0.05-0.3,0.24c-0.46,0.26-0.88,0.54-1.26,0.86c-0.38,0.32-0.77,0.61-1.17,0.86c-0.17,0.26-0.38,0.48-0.61,0.67
			c-0.23,0.19-0.43,0.42-0.61,0.67l-1.82,1.92c-0.23,0.45-0.55,0.83-0.95,1.15c-0.29,0.71-0.67,1.31-1.13,1.82
			c-0.12,0.38-0.43,0.99-0.95,1.82c-0.52,0.83-0.9,1.44-1.13,1.82c-0.12,0.32-0.25,0.64-0.39,0.96c-0.14,0.32-0.27,0.67-0.39,1.06
			c-0.12,0.38-0.25,0.9-0.39,1.54c-0.15,0.64-0.32,1.3-0.52,1.97s-0.4,1.34-0.61,2.02c-0.2,0.67-0.36,1.23-0.48,1.68
			c-0.23,1.09-0.48,2.14-0.74,3.17c-0.26,1.02-0.56,2.08-0.91,3.17c-0.29,1.34-0.63,2.69-1.04,4.03c-0.4,1.34-0.81,2.69-1.21,4.03
			l-0.69,1.73c-0.23,0.83-0.46,1.63-0.69,2.4c-0.23,0.77-0.49,1.5-0.78,2.21l-0.61,1.54c-0.35,0.25-0.61,0.32-0.78,0.19
			c-0.23-0.13-0.49-0.29-0.78-0.48c-0.29-0.19-0.55-0.38-0.78-0.58c-0.29-0.26-0.38-0.54-0.26-0.86v-0.38
			c-0.06-0.32-0.04-0.62,0.04-0.91s0.16-0.59,0.22-0.91c0.06-0.38,0.1-0.74,0.13-1.06c0.03-0.32,0.1-0.64,0.22-0.96
			c0.06-0.32,0.09-0.61,0.09-0.86c0-0.26,0.06-0.54,0.17-0.86c0.29-0.96,0.55-1.94,0.78-2.93c0.23-0.99,0.55-1.94,0.95-2.83
			c0.12-0.32,0.14-0.58,0.09-0.77c0.12-0.51,0.26-0.99,0.43-1.44c0.17-0.45,0.32-0.9,0.43-1.34v-0.19c0.12-0.25,0.26-0.46,0.43-0.62
			c0.17-0.16,0.26-0.43,0.26-0.82c0-0.19,0.03-0.4,0.09-0.62c0.06-0.22,0.12-0.46,0.17-0.72c0.12-0.38,0.26-0.74,0.43-1.06
			c0.4-0.77,0.75-1.7,1.04-2.78c0.12-0.45,0.25-0.85,0.39-1.2c0.15-0.35,0.28-0.69,0.39-1.01l0.43-0.58
			c0.12-0.51,0.35-1.21,0.69-2.11c0.35-0.9,0.61-1.57,0.78-2.02c0.17-0.32,0.29-0.61,0.35-0.86c0.06-0.25,0.14-0.54,0.26-0.86
			c0.06-0.19,0.12-0.4,0.17-0.62c0.06-0.22,0.12-0.49,0.17-0.82l0.26-1.63l0.17-1.82c0.12-0.9,0.2-1.73,0.26-2.5
			c0.06-0.77,0.12-1.57,0.17-2.4v-2.88l0.26-0.77c0-0.13,0.11-0.19,0.35-0.19c0.12,0.06,0.2,0.1,0.26,0.1s0.12,0.03,0.17,0.1
			c0.23,0,0.4,0.06,0.52,0.19c0.46,0.45,0.74,0.74,0.82,0.86c0.09,0.13,0.13,0.61,0.13,1.44L487.88,139.97z"/>
		<path class="st0" d="M512.56,155.43c-0.29,0-0.61-0.06-0.95-0.19c-0.35-0.13-0.75-0.25-1.21-0.38c-0.87-0.51-1.5-0.98-1.91-1.39
			c-0.4-0.42-0.75-1.17-1.04-2.26c-0.46-1.15-0.58-2.33-0.35-3.55l0.78-3.07c0.29-0.58,0.58-1.18,0.87-1.82
			c0.29-0.64,0.52-1.25,0.69-1.82c0.06,0,0.06-0.03,0-0.1c-0.06-0.06-0.06-0.13,0-0.19c0.06-0.13,0.17-0.22,0.35-0.29
			c0.17-0.06,0.32-0.06,0.43,0c0.23,0.13,0.43,0.24,0.61,0.34s0.35,0.21,0.52,0.34c0.06,0.06,0.09,0.11,0.09,0.14
			c0,0.03,0.06,0.08,0.17,0.14c0.35,0.38,0.53,0.74,0.56,1.06c0.03,0.32-0.1,0.74-0.39,1.25l-1.47,3.74
			c-0.17,0.58-0.33,1.15-0.48,1.73c-0.14,0.58-0.16,1.15-0.04,1.73c0.06,1.09,0.56,1.71,1.52,1.87c0.95,0.16,1.83,0.18,2.64,0.05
			c0.81-0.13,1.7-0.37,2.69-0.72c0.98-0.35,1.95-0.77,2.9-1.25c0.95-0.48,1.85-0.99,2.69-1.54c0.84-0.54,1.54-1.07,2.12-1.58
			c0.35-0.32,0.55-0.51,0.61-0.58c0.06-0.06,0.12-0.1,0.17-0.1s0.14-0.05,0.26-0.14c0.11-0.1,0.4-0.34,0.87-0.72
			c0.17-0.19,0.43-0.43,0.78-0.72s0.61-0.53,0.78-0.72c0.23-0.13,0.5-0.34,0.82-0.62c0.32-0.29,0.63-0.56,0.95-0.82
			c0.32-0.25,0.61-0.42,0.87-0.48c0.26-0.06,0.48,0.03,0.65,0.29c0.12,0.26,0.09,0.56-0.09,0.91c-0.17,0.35-0.17,0.69,0,1.01
			l-0.17,0.58c-0.12,0.32-0.26,0.51-0.43,0.58c-0.17,0.06-0.4,0.13-0.69,0.19c-0.41,0.38-0.78,0.74-1.13,1.06
			c-0.35,0.32-0.69,0.71-1.04,1.15c-0.58,0.51-1.04,0.9-1.39,1.15c-0.35,0.26-0.65,0.5-0.91,0.72c-0.26,0.22-0.53,0.43-0.82,0.62
			c-0.29,0.19-0.64,0.45-1.04,0.77c0,0.06-0.14,0.13-0.43,0.19c-0.29,0.06-0.46,0.13-0.52,0.19c-0.41,0.51-0.87,0.86-1.39,1.06
			c-0.52,0.19-1.21,0.51-2.08,0.96c-0.87,0.26-1.86,0.58-2.99,0.96C514.86,155.53,513.72,155.62,512.56,155.43z M513.34,133.64
			c-0.23-0.13-0.38-0.19-0.43-0.19c-0.12-0.06-0.2-0.13-0.26-0.19c-0.06-0.06-0.15-0.16-0.26-0.29c-0.29-0.51-0.38-1.09-0.26-1.73
			c0.12-0.51,0.23-1.02,0.35-1.54c0.12-0.51,0.35-1.02,0.69-1.54c0-0.32,0.06-0.42,0.17-0.29c0.35-0.19,0.63-0.29,0.87-0.29
			c0.52,0.19,1.01,0.54,1.47,1.06c0.29,0.19,0.42,0.4,0.39,0.62c-0.03,0.22-0.07,0.5-0.13,0.82c0,0.13-0.03,0.24-0.09,0.34
			c-0.06,0.1-0.12,0.21-0.17,0.34c-0.4,0.51-0.75,1.12-1.04,1.82c0.17,0.13,0.14,0.23-0.09,0.29
			C514.27,133.38,513.86,133.64,513.34,133.64z"/>
		<path class="st0" d="M540.63,139.78c0,0.13-0.02,0.22-0.04,0.29c-0.03,0.06-0.04,0.16-0.04,0.29c0,0.13-0.06,0.22-0.17,0.29
			c-0.12,0.06-0.2,0.06-0.26,0c-0.06,0-0.12-0.03-0.17-0.1c-0.29-0.25-0.61-0.4-0.95-0.43c-0.35-0.03-0.72-0.01-1.13,0.05
			c-0.87,0.26-1.75,0.54-2.64,0.86c-0.9,0.32-1.75,0.74-2.56,1.25c-0.52,0.26-1.1,0.67-1.73,1.25c-0.35,0.32-0.29,0.58,0.17,0.77
			c0.23,0.13,0.4,0.19,0.52,0.19c0.35,0.13,0.69,0.24,1.04,0.34s0.72,0.21,1.13,0.34c0.52,0.13,1.02,0.29,1.52,0.48
			c0.49,0.19,1,0.38,1.52,0.58c0.4,0.19,0.72,0.3,0.95,0.34c0.23,0.03,0.55,0.21,0.95,0.53c0.4,0.26,0.75,0.35,1.04,0.29
			c0.92-0.25,1.91-0.48,2.94-0.67c0.35-0.13,0.68-0.22,1-0.29c0.32-0.06,0.68-0.13,1.08-0.19c0.17,0,0.52-0.06,1.04-0.19
			c0.52-0.13,1.07-0.27,1.65-0.43c0.58-0.16,1.13-0.3,1.65-0.43c0.52-0.13,0.87-0.19,1.04-0.19c0.17,0,0.35-0.03,0.52-0.1
			c0.17-0.06,0.35-0.1,0.52-0.1c0.29-0.19,0.46-0.22,0.52-0.1c0.35-0.06,0.81-0.14,1.39-0.24c0.58-0.1,0.92,0.02,1.04,0.34
			c0.35,0.32,0.46,0.59,0.35,0.82c-0.12,0.23-0.32,0.4-0.61,0.53c-0.29,0.13-0.62,0.22-1,0.29c-0.38,0.06-0.68,0.1-0.91,0.1
			c-0.4,0-0.79,0.06-1.17,0.19c-0.38,0.13-0.74,0.26-1.08,0.38l-4.94,1.25c-0.52,0.13-1.21,0.34-2.08,0.62s-1.39,0.53-1.56,0.72
			c-0.17,0.13-0.16,0.34,0.04,0.62c0.2,0.29,0.33,0.53,0.39,0.72c0.12,0.32,0.16,0.56,0.13,0.72c-0.03,0.16-0.04,0.37-0.04,0.62
			c-0.06,0.71-0.16,1.26-0.3,1.68c-0.15,0.42-0.51,0.98-1.08,1.68c-0.52,0.71-1.08,1.31-1.69,1.82c-0.61,0.51-1.23,1.02-1.86,1.54
			c-0.69,0.51-1.4,0.98-2.12,1.39c-0.72,0.42-1.46,0.79-2.21,1.1c-0.12,0.13-0.23,0.19-0.35,0.19c-0.64,0.13-1.23,0.29-1.78,0.48
			c-0.55,0.19-1.11,0.29-1.69,0.29c-0.17,0-0.32,0.03-0.43,0.1c-0.12,0.06-0.23,0.1-0.35,0.1c-0.46,0.06-0.92,0.05-1.39-0.05
			c-0.46-0.1-0.89-0.3-1.3-0.62c-0.29-0.19-0.5-0.4-0.65-0.62c-0.14-0.22-0.27-0.49-0.39-0.82l-0.26-1.44
			c0-0.19,0.06-0.35,0.17-0.48c0.29-0.96,0.69-1.73,1.21-2.3c0.64-0.64,1.26-1.23,1.86-1.78c0.61-0.54,1.26-1.04,1.95-1.49
			c0.35-0.19,0.66-0.42,0.95-0.67c0.29-0.25,0.63-0.45,1.04-0.58c0.12-0.06,0.2-0.1,0.26-0.1c0.06,0,0.12-0.03,0.17-0.1
			c0.81-0.51,1.63-0.99,2.47-1.44c0.84-0.45,1.66-0.83,2.47-1.15c0.12,0,0.17-0.06,0.17-0.19c-0.06-0.06-0.09-0.05-0.09,0.05
			s-0.03,0.11-0.09,0.05c-0.52-0.19-1.05-0.4-1.6-0.62c-0.55-0.22-1.08-0.4-1.6-0.53l-1.65-0.48c-0.4-0.06-0.81-0.22-1.21-0.48
			c-1.16-0.45-1.79-1.44-1.91-2.98c-0.17-1.02,0.09-1.89,0.78-2.59c0.17-0.19,0.35-0.37,0.52-0.53c0.17-0.16,0.35-0.3,0.52-0.43
			c0.63-0.51,1.31-0.94,2.04-1.3c0.72-0.35,1.43-0.69,2.12-1.01c1.33-0.51,2.51-0.86,3.55-1.06c0.12,0,0.25-0.01,0.39-0.05
			c0.14-0.03,0.27-0.05,0.39-0.05c0.63-0.13,1.1,0.13,1.39,0.77c0,0.06,0.06,0.23,0.17,0.48
			C540.68,138.66,540.8,139.21,540.63,139.78z M526.94,160.23c0.29,0,0.58-0.03,0.87-0.1c0.29-0.06,0.58-0.13,0.87-0.19
			c1.1-0.25,2.31-0.7,3.64-1.34c0.29-0.19,0.58-0.38,0.87-0.58c0.29-0.19,0.58-0.35,0.87-0.48l0.61-0.48l2.17-1.63
			c0.87-0.7,1.67-1.57,2.42-2.59c0.12-0.13,0.17-0.3,0.17-0.53c0-0.22,0.03-0.4,0.09-0.53c0.12-0.13,0.13-0.16,0.04-0.1
			c-0.09,0.06-0.07,0.03,0.04-0.1c0-0.13-0.09-0.35-0.26-0.67c-0.17-0.32-0.32-0.45-0.43-0.38c-0.75,0.32-1.44,0.67-2.08,1.06
			c-0.64,0.38-1.33,0.77-2.08,1.15c-0.29,0.13-0.56,0.3-0.82,0.53c-0.26,0.22-0.53,0.4-0.82,0.53l-0.52,0.29l-1.82,1.15
			c-0.12,0.13-0.26,0.22-0.43,0.29c-0.17,0.06-0.32,0.16-0.43,0.29c-0.35,0.32-0.71,0.62-1.08,0.91c-0.38,0.29-0.74,0.59-1.08,0.91
			c-0.69,0.58-1.27,1.31-1.73,2.21l0.09,0.19C526.54,160.17,526.83,160.23,526.94,160.23z"/>
		<path class="st0" d="M553.79,140.07c0.06-0.38,0.13-0.74,0.22-1.06s0.16-0.64,0.22-0.96c0,0.07,0.06-0.11,0.17-0.53
			c0.12-0.42,0.26-0.94,0.43-1.58c0.17-0.64,0.35-1.3,0.52-1.97c0.17-0.67,0.35-1.23,0.52-1.68c0.29-0.7,0.46-1.2,0.52-1.49
			c0.06-0.29,0.23-0.78,0.52-1.49c0.11-0.19,0.26-0.48,0.43-0.86s0.35-0.8,0.52-1.25c0.17-0.45,0.32-0.86,0.43-1.25
			c0.12-0.38,0.17-0.67,0.17-0.86l-0.09,0.1h-0.09c-0.12-0.13-0.2-0.1-0.26,0.1l-1.56,0.58l-2.43,0.96
			c-0.29,0.13-0.48,0.19-0.56,0.19s-0.14,0-0.17,0c-0.03,0-0.07,0.02-0.13,0.05s-0.2,0.11-0.43,0.24c-0.29,0.13-0.62,0.24-1,0.34
			c-0.38,0.1-0.79,0.21-1.26,0.34c-0.23,0-0.49-0.13-0.78-0.38c-0.23-0.13-0.27-0.34-0.13-0.62c0.15-0.29,0.19-0.46,0.13-0.53
			l-0.09-0.1c-0.06-0.45,0.04-0.7,0.3-0.77c0.26-0.06,0.51-0.1,0.74-0.1l1.73-0.67c0.06-0.06,0.12-0.14,0.17-0.24
			c0.06-0.1,0.17-0.08,0.35,0.05c0.46-0.25,0.84-0.42,1.13-0.48c0.23-0.13,0.4-0.19,0.52-0.19c0.35-0.25,0.71-0.43,1.08-0.53
			c0.38-0.1,0.74-0.18,1.08-0.24c0.12-0.06,0.23-0.13,0.35-0.19c0.12-0.06,0.23-0.1,0.35-0.1c0.29-0.06,0.55-0.14,0.78-0.24
			c0.23-0.1,0.49-0.21,0.78-0.34c0.4-0.19,0.61-0.35,0.61-0.48c0-0.06,0.03-0.13,0.09-0.19v-0.1l0.52-1.44l3.81-10.75
			c0.06-0.13,0.12-0.3,0.17-0.53c0.06-0.22,0.14-0.5,0.26-0.82l0.26-0.48c0.11-0.32,0.46-0.48,1.04-0.48c0.58,0,1.01,0.13,1.3,0.38
			c0.06,0.13,0.13,0.29,0.22,0.48s0.19,0.38,0.3,0.58c0.06,0.13,0.11,0.32,0.17,0.58c0.06,0.26,0.03,0.48-0.09,0.67
			c-0.98,1.92-1.82,3.78-2.51,5.57c-0.69,1.79-1.44,3.68-2.25,5.66c-0.12,0.13-0.1,0.18,0.04,0.14c0.14-0.03,0.25-0.02,0.3,0.05
			c1.21-0.32,2.15-0.54,2.81-0.67c0.66-0.13,1.54-0.35,2.64-0.67c0.35,0,0.66-0.08,0.95-0.24c0.29-0.16,0.58-0.14,0.87,0.05
			c0.12-0.06,0.26-0.08,0.43-0.05c0.17,0.03,0.32-0.01,0.43-0.14c0.52-0.19,1.04-0.16,1.56,0.1c0.23-0.13,0.4-0.16,0.52-0.1
			c0.35-0.19,0.68-0.21,1-0.05c0.32,0.16,0.68,0.24,1.08,0.24c0.12-0.06,0.16-0.03,0.13,0.1c-0.03,0.13-0.01,0.19,0.04,0.19
			c0.17,0,0.27,0.05,0.3,0.14c0.03,0.1-0.01,0.14-0.13,0.14c-0.29,0.13-0.41,0.27-0.35,0.43c0.06,0.16,0.06,0.24,0,0.24
			c-0.46,0.13-0.9,0.21-1.3,0.24c-0.41,0.03-0.84,0.14-1.3,0.34c-0.29,0-0.56,0.02-0.82,0.05c-0.26,0.03-0.53,0.11-0.82,0.24
			l-0.35,0.19c-0.64-0.06-1.31,0.02-2.04,0.24c-0.72,0.23-1.43,0.4-2.12,0.53c-0.35,0.13-0.62,0.24-0.82,0.34
			c-0.2,0.1-0.45,0.21-0.74,0.34l-1.47,0.29l-1.3,0.48c-0.29,0-0.45,0.06-0.48,0.19c-0.03,0.13-0.1,0.26-0.22,0.38
			c-0.06,0.06-0.16,0.32-0.3,0.77c-0.14,0.45-0.29,0.93-0.43,1.44c-0.14,0.51-0.3,0.99-0.48,1.44c-0.17,0.45-0.29,0.74-0.35,0.86
			c-0.69,2.24-1.39,4.35-2.08,6.34c-0.69,1.98-1.3,4.02-1.82,6.1c-0.52,2.08-0.95,4.27-1.3,6.58c-0.35,2.3-0.52,4.86-0.52,7.68
			c0,1.54,0.03,2.64,0.09,3.31c0.06,0.67,0.13,1.14,0.22,1.39c0.09,0.26,0.17,0.42,0.26,0.48c0.09,0.06,0.19,0.23,0.3,0.48
			c0.35,0.06,0.65,0.21,0.91,0.43c0.26,0.23,0.42,0.46,0.48,0.72c0.06,0.26-0.01,0.5-0.22,0.72c-0.2,0.22-0.59,0.34-1.17,0.34
			c-0.12,0-0.23-0.06-0.35-0.19c-0.81-0.32-1.31-0.56-1.52-0.72c-0.2-0.16-0.42-0.56-0.65-1.2c-0.46-0.9-0.74-2.11-0.82-3.65
			s-0.13-2.88-0.13-4.03l0.17-3.55c0-0.64,0.03-1.09,0.09-1.34c0.06-0.25,0.14-0.7,0.26-1.34c0.06-0.83,0.22-1.97,0.48-3.41
			c0.26-1.44,0.5-2.58,0.74-3.41L553.79,140.07z"/>
		<path class="st0" d="M579.17,139.78c0,0.13-0.02,0.22-0.04,0.29c-0.03,0.06-0.04,0.16-0.04,0.29c0,0.13-0.06,0.22-0.17,0.29
			c-0.12,0.06-0.2,0.06-0.26,0c-0.06,0-0.12-0.03-0.17-0.1c-0.29-0.25-0.61-0.4-0.95-0.43c-0.35-0.03-0.72-0.01-1.13,0.05
			c-0.87,0.26-1.75,0.54-2.64,0.86c-0.9,0.32-1.75,0.74-2.56,1.25c-0.52,0.26-1.1,0.67-1.73,1.25c-0.35,0.32-0.29,0.58,0.17,0.77
			c0.23,0.13,0.4,0.19,0.52,0.19c0.35,0.13,0.69,0.24,1.04,0.34s0.72,0.21,1.13,0.34c0.52,0.13,1.02,0.29,1.52,0.48
			c0.49,0.19,1,0.38,1.52,0.58c0.4,0.19,0.72,0.3,0.95,0.34c0.23,0.03,0.55,0.21,0.95,0.53c0.4,0.26,0.75,0.35,1.04,0.29
			c0.92-0.25,1.91-0.48,2.94-0.67c0.35-0.13,0.68-0.22,1-0.29c0.32-0.06,0.68-0.13,1.08-0.19c0.17,0,0.52-0.06,1.04-0.19
			c0.52-0.13,1.07-0.27,1.65-0.43c0.58-0.16,1.13-0.3,1.65-0.43c0.52-0.13,0.87-0.19,1.04-0.19c0.17,0,0.35-0.03,0.52-0.1
			c0.17-0.06,0.35-0.1,0.52-0.1c0.29-0.19,0.46-0.22,0.52-0.1c0.35-0.06,0.81-0.14,1.39-0.24c0.58-0.1,0.92,0.02,1.04,0.34
			c0.35,0.32,0.46,0.59,0.35,0.82c-0.12,0.23-0.32,0.4-0.61,0.53c-0.29,0.13-0.62,0.22-1,0.29c-0.38,0.06-0.68,0.1-0.91,0.1
			c-0.4,0-0.79,0.06-1.17,0.19c-0.38,0.13-0.74,0.26-1.08,0.38l-4.94,1.25c-0.52,0.13-1.21,0.34-2.08,0.62s-1.39,0.53-1.56,0.72
			c-0.17,0.13-0.16,0.34,0.04,0.62c0.2,0.29,0.33,0.53,0.39,0.72c0.12,0.32,0.16,0.56,0.13,0.72c-0.03,0.16-0.04,0.37-0.04,0.62
			c-0.06,0.71-0.16,1.26-0.3,1.68c-0.15,0.42-0.51,0.98-1.08,1.68c-0.52,0.71-1.08,1.31-1.69,1.82c-0.61,0.51-1.23,1.02-1.86,1.54
			c-0.69,0.51-1.4,0.98-2.12,1.39c-0.72,0.42-1.46,0.79-2.21,1.1c-0.12,0.13-0.23,0.19-0.35,0.19c-0.64,0.13-1.23,0.29-1.78,0.48
			c-0.55,0.19-1.11,0.29-1.69,0.29c-0.17,0-0.32,0.03-0.43,0.1c-0.12,0.06-0.23,0.1-0.35,0.1c-0.46,0.06-0.92,0.05-1.39-0.05
			c-0.46-0.1-0.89-0.3-1.3-0.62c-0.29-0.19-0.5-0.4-0.65-0.62c-0.14-0.22-0.27-0.49-0.39-0.82l-0.26-1.44
			c0-0.19,0.06-0.35,0.17-0.48c0.29-0.96,0.69-1.73,1.21-2.3c0.64-0.64,1.26-1.23,1.86-1.78c0.61-0.54,1.26-1.04,1.95-1.49
			c0.35-0.19,0.66-0.42,0.95-0.67c0.29-0.25,0.63-0.45,1.04-0.58c0.12-0.06,0.2-0.1,0.26-0.1c0.06,0,0.12-0.03,0.17-0.1
			c0.81-0.51,1.63-0.99,2.47-1.44c0.84-0.45,1.66-0.83,2.47-1.15c0.12,0,0.17-0.06,0.17-0.19c-0.06-0.06-0.09-0.05-0.09,0.05
			s-0.03,0.11-0.09,0.05c-0.52-0.19-1.05-0.4-1.6-0.62c-0.55-0.22-1.08-0.4-1.6-0.53l-1.65-0.48c-0.4-0.06-0.81-0.22-1.21-0.48
			c-1.16-0.45-1.79-1.44-1.91-2.98c-0.17-1.02,0.09-1.89,0.78-2.59c0.17-0.19,0.35-0.37,0.52-0.53c0.17-0.16,0.35-0.3,0.52-0.43
			c0.63-0.51,1.31-0.94,2.04-1.3c0.72-0.35,1.43-0.69,2.12-1.01c1.33-0.51,2.51-0.86,3.55-1.06c0.12,0,0.25-0.01,0.39-0.05
			c0.14-0.03,0.27-0.05,0.39-0.05c0.63-0.13,1.1,0.13,1.39,0.77c0,0.06,0.06,0.23,0.17,0.48
			C579.23,138.66,579.35,139.21,579.17,139.78z M565.49,160.23c0.29,0,0.58-0.03,0.87-0.1c0.29-0.06,0.58-0.13,0.87-0.19
			c1.1-0.25,2.31-0.7,3.64-1.34c0.29-0.19,0.58-0.38,0.87-0.58c0.29-0.19,0.58-0.35,0.87-0.48l0.61-0.48l2.17-1.63
			c0.87-0.7,1.67-1.57,2.42-2.59c0.12-0.13,0.17-0.3,0.17-0.53c0-0.22,0.03-0.4,0.09-0.53c0.12-0.13,0.13-0.16,0.04-0.1
			c-0.09,0.06-0.07,0.03,0.04-0.1c0-0.13-0.09-0.35-0.26-0.67c-0.17-0.32-0.32-0.45-0.43-0.38c-0.75,0.32-1.44,0.67-2.08,1.06
			c-0.64,0.38-1.33,0.77-2.08,1.15c-0.29,0.13-0.56,0.3-0.82,0.53c-0.26,0.22-0.53,0.4-0.82,0.53l-0.52,0.29l-1.82,1.15
			c-0.12,0.13-0.26,0.22-0.43,0.29c-0.17,0.06-0.32,0.16-0.43,0.29c-0.35,0.32-0.71,0.62-1.08,0.91c-0.38,0.29-0.74,0.59-1.08,0.91
			c-0.69,0.58-1.27,1.31-1.73,2.21l0.09,0.19C565.08,160.17,565.37,160.23,565.49,160.23z"/>
	</g>
</g>
<g id="Layer_2">
	<g>
		<g>
			<path class="st1" d="M55.1,78.74H42.68V45.58c0-12.06-3.74-17.36-13.99-17.36c-11.57,0-16.28,8.08-16.28,18.57v31.95H0V0.36
				h12.42v28.46c1.69-5.3,9.16-10.13,16.28-10.61c16.16-1.21,26.4,6.63,26.4,26.16V78.74z"/>
			<path class="st1" d="M122.13,53.54h-46.9c0,10.97,10.49,16.28,18.21,16.28c5.67,0,11.94-3.01,15.31-7.84l8.56,7.72
				c-3.98,5.43-10.49,10.25-23.87,10.25c-19.29,0-31.11-13.14-31.11-30.86c0-17.72,11.45-30.99,29.9-30.99s26.89,10.25,29.42,25.2
				c0.36,1.93,0.48,3.86,0.48,5.79V53.54z M109.11,43.29c0-9.65-7.72-14.95-16.88-14.95c-9.16,0-16.76,6.15-16.76,14.95H109.11z"/>
			<path class="st1" d="M209.68,78.74h-12.54V0.35h12.54V78.74z"/>
			<path class="st1" d="M254.53,68.49v9.65c-1.57,0.96-3.86,1.81-7.11,1.81c-7.11,0-13.38-2.29-17.24-8.56
				c-3.62-6.03-3.62-9.28-3.62-18.69V29.3h-7.23V19.18h7.23V0.37h12.42v18.81h15.55V29.3h-15.55v23.39c0,9.89,0.96,13.5,6.87,16.16
				C249.7,70.42,252.72,69.33,254.53,68.49z"/>
			<path class="st1" d="M320.47,78.74h-12.42V45.58c0-12.06-3.74-17.36-13.98-17.36c-11.57,0-16.28,8.08-16.28,18.57v31.95h-12.42
				V0.37h12.42v28.45c1.69-5.3,9.16-10.13,16.28-10.61c16.16-1.21,26.4,6.63,26.4,26.16V78.74z"/>
		</g>
		<g>
			<path class="st2" d="M385.24,78.74h-12.42V45.58c0-12.06-3.74-17.36-13.99-17.36c-11.57,0-16.28,8.08-16.28,18.57v31.95h-12.42
				V0.35h12.42v28.47c1.69-5.3,9.16-10.13,16.28-10.61c16.16-1.21,26.4,6.63,26.4,26.16V78.74z"/>
			<path class="st2" d="M455.64,49.08c0,17.72-13.86,30.86-30.99,30.86c-17.12,0-30.98-13.14-30.98-30.86
				c0-17.72,13.87-30.98,30.98-30.98C441.78,18.09,455.64,31.35,455.64,49.08z M406.09,49.08c0,12.06,8.32,20.74,18.57,20.74
				c10.25,0,18.57-8.68,18.57-20.74c0-12.18-8.32-20.74-18.57-20.74C414.41,28.34,406.09,36.9,406.09,49.08z"/>
			<path class="st2" d="M505.68,68.25c-3.13,7.11-11.45,11.69-21.82,11.69c0,0,0,0-0.12,0c-8.32,0-15.91-3.5-21.58-9.04l8.08-8.08
				c3.38,4.34,8.2,6.51,13.5,6.51c5.91,0,10.85-2.17,12.18-5.3c0.84-2.17,0.12-4.46,0.12-4.7c-1.45-3.62-6.75-4.34-12.78-5.67
				c-8.08-1.81-16.16-3.86-19.29-12.3c-1.57-4.34-1.09-9.4,1.08-13.62c4.94-9.28,17.24-9.65,18.69-9.65c8.32,0,16.15,3.13,21.7,8.8
				l-8.08,8.08c-3.38-4.34-8.32-6.27-13.62-6.27c-0.12,0-7.24,0.12-9.28,4.1c-0.72,1.21-1.09,3.25-0.48,4.94
				c1.21,3.38,6.63,4.46,12.42,5.79c7.84,1.81,16.4,3.62,19.53,12.06C506.16,56.31,508.21,62.22,505.68,68.25z"/>
			<path class="st2" d="M547.51,68.49v9.65c-1.57,0.96-3.86,1.81-7.11,1.81c-7.11,0-13.38-2.29-17.24-8.56
				c-3.62-6.03-3.62-9.28-3.62-18.69V29.31h-7.23V19.18h7.23V0.37h12.42v18.81h15.55v10.13h-15.55v23.39
				c0,9.89,0.96,13.5,6.87,16.16C542.69,70.42,545.7,69.33,547.51,68.49z"/>
			<path class="st2" d="M598.75,68.25c-3.13,7.11-11.45,11.69-21.82,11.69c0,0,0,0-0.12,0c-8.32,0-15.91-3.5-21.58-9.04l8.08-8.08
				c3.38,4.34,8.2,6.51,13.5,6.51c5.91,0,10.85-2.17,12.18-5.3c0.84-2.17,0.12-4.46,0.12-4.7c-1.45-3.62-6.75-4.34-12.78-5.67
				c-8.08-1.81-16.16-3.86-19.29-12.3c-1.57-4.34-1.09-9.4,1.09-13.62c4.94-9.28,17.24-9.65,18.69-9.65c8.32,0,16.16,3.13,21.7,8.8
				l-8.08,8.08c-3.38-4.34-8.32-6.27-13.62-6.27c-0.12,0-7.23,0.12-9.28,4.1c-0.72,1.21-1.09,3.25-0.48,4.94
				c1.21,3.38,6.63,4.46,12.42,5.79c7.84,1.81,16.4,3.62,19.53,12.06C599.23,56.31,601.28,62.22,598.75,68.25z"/>
		</g>
	</g>
	<g>
		<path class="st1" d="M187.5,21.31v60.4h-10.97v-6.75c-4.94,4.22-11.21,6.75-18.33,6.75c-15.91,0-28.94-13.26-28.94-30.02
			c0-16.4,13.02-29.78,28.94-29.78c7.11,0,13.38,2.53,18.33,6.75v-7.35H187.5z M176.53,54.35v-5.06c-1.33-9.28-9.04-16.4-18.33-16.4
			c-10.13,0-18.45,8.56-18.45,18.81c0,10.49,8.32,19.05,18.45,19.05C167.49,70.75,175.2,63.63,176.53,54.35z"/>
	</g>
</g>
</svg>
